<svg width="703" height="718" viewBox="0 0 703 718" fill="none" xmlns="http://www.w3.org/2000/svg">
<path d="M426.563 314.717C456.919 362.196 474.452 411.512 478.278 452.847C482.106 494.212 472.205 527.432 447.905 542.969C423.606 558.505 389.297 553.55 353.358 532.716C317.444 511.896 280.04 475.286 249.684 427.807C219.328 380.328 201.795 331.013 197.969 289.677C194.14 248.313 204.041 215.092 228.341 199.556C252.64 184.02 286.949 188.974 322.888 209.809C358.802 230.628 396.207 267.239 426.563 314.717Z" stroke="#808080"/>
<path d="M436.352 293.397C466.708 340.875 484.241 390.191 488.067 431.527C491.896 472.891 481.995 506.112 457.695 521.648C433.395 537.184 399.086 532.23 363.148 511.395C327.234 490.575 289.829 453.965 259.473 406.487C229.117 359.008 211.584 309.692 207.758 268.357C203.929 226.992 213.83 193.772 238.13 178.235C262.43 162.699 296.739 167.654 332.677 188.488C368.591 209.308 405.996 245.918 436.352 293.397Z" stroke="#808080"/>
<rect x="94" y="241" width="206" height="205" rx="3" fill="#202020"/>
<rect x="235" y="133" width="206" height="205" rx="3" fill="#BBF9D4"/>
<path d="M391.511 172.227C390.811 172.227 390.209 171.976 389.707 171.474C389.205 170.973 388.955 170.371 388.955 169.67C388.955 168.97 389.205 168.368 389.707 167.866C390.209 167.365 390.811 167.114 391.511 167.114C392.212 167.114 392.813 167.365 393.315 167.866C393.817 168.368 394.068 168.97 394.068 169.67C394.068 170.134 393.95 170.561 393.713 170.949C393.486 171.337 393.178 171.65 392.79 171.886C392.411 172.114 391.985 172.227 391.511 172.227ZM402.527 172.227C401.826 172.227 401.225 171.976 400.723 171.474C400.221 170.973 399.97 170.371 399.97 169.67C399.97 168.97 400.221 168.368 400.723 167.866C401.225 167.365 401.826 167.114 402.527 167.114C403.228 167.114 403.829 167.365 404.331 167.866C404.833 168.368 405.084 168.97 405.084 169.67C405.084 170.134 404.965 170.561 404.729 170.949C404.501 171.337 404.194 171.65 403.805 171.886C403.427 172.114 403 172.227 402.527 172.227ZM413.543 172.227C412.842 172.227 412.241 171.976 411.739 171.474C411.237 170.973 410.986 170.371 410.986 169.67C410.986 168.97 411.237 168.368 411.739 167.866C412.241 167.365 412.842 167.114 413.543 167.114C414.243 167.114 414.845 167.365 415.347 167.866C415.848 168.368 416.099 168.97 416.099 169.67C416.099 170.134 415.981 170.561 415.744 170.949C415.517 171.337 415.209 171.65 414.821 171.886C414.442 172.114 414.016 172.227 413.543 172.227Z" fill="black"/>
<path d="M127.534 268C127.393 267.57 127.208 267.184 126.978 266.843C126.752 266.498 126.482 266.204 126.166 265.961C125.855 265.718 125.501 265.533 125.105 265.405C124.709 265.277 124.274 265.213 123.801 265.213C123.026 265.213 122.32 265.413 121.685 265.814C121.05 266.214 120.545 266.805 120.17 267.585C119.795 268.364 119.608 269.321 119.608 270.455C119.608 271.588 119.798 272.545 120.177 273.325C120.556 274.104 121.07 274.695 121.717 275.095C122.365 275.496 123.094 275.696 123.903 275.696C124.653 275.696 125.314 275.536 125.885 275.217C126.46 274.893 126.908 274.437 127.227 273.849C127.551 273.256 127.713 272.56 127.713 271.759L128.199 271.861H124.261V270.455H129.247V271.861C129.247 272.939 129.017 273.876 128.557 274.673C128.101 275.47 127.47 276.088 126.665 276.527C125.864 276.962 124.943 277.179 123.903 277.179C122.744 277.179 121.726 276.906 120.848 276.361C119.974 275.815 119.293 275.04 118.803 274.034C118.317 273.028 118.074 271.835 118.074 270.455C118.074 269.419 118.212 268.488 118.489 267.661C118.771 266.83 119.167 266.123 119.678 265.539C120.19 264.955 120.795 264.508 121.494 264.197C122.192 263.886 122.962 263.73 123.801 263.73C124.491 263.73 125.135 263.835 125.732 264.043C126.332 264.248 126.867 264.54 127.336 264.919C127.809 265.294 128.203 265.744 128.518 266.268C128.834 266.788 129.051 267.365 129.17 268H127.534ZM135.746 277.205C134.86 277.205 134.082 276.994 133.413 276.572C132.748 276.15 132.229 275.56 131.854 274.801C131.483 274.043 131.297 273.156 131.297 272.142C131.297 271.119 131.483 270.227 131.854 269.464C132.229 268.701 132.748 268.109 133.413 267.687C134.082 267.265 134.86 267.054 135.746 267.054C136.633 267.054 137.408 267.265 138.073 267.687C138.742 268.109 139.262 268.701 139.633 269.464C140.008 270.227 140.195 271.119 140.195 272.142C140.195 273.156 140.008 274.043 139.633 274.801C139.262 275.56 138.742 276.15 138.073 276.572C137.408 276.994 136.633 277.205 135.746 277.205ZM135.746 275.849C136.42 275.849 136.974 275.677 137.408 275.332C137.843 274.987 138.165 274.533 138.373 273.97C138.582 273.408 138.687 272.798 138.687 272.142C138.687 271.486 138.582 270.874 138.373 270.308C138.165 269.741 137.843 269.283 137.408 268.933C136.974 268.584 136.42 268.409 135.746 268.409C135.073 268.409 134.519 268.584 134.084 268.933C133.65 269.283 133.328 269.741 133.119 270.308C132.91 270.874 132.806 271.486 132.806 272.142C132.806 272.798 132.91 273.408 133.119 273.97C133.328 274.533 133.65 274.987 134.084 275.332C134.519 275.677 135.073 275.849 135.746 275.849ZM144.006 263.909V277H142.498V263.909H144.006ZM150.477 277.205C149.659 277.205 148.936 276.998 148.31 276.585C147.683 276.167 147.193 275.579 146.84 274.82C146.486 274.058 146.309 273.156 146.309 272.116C146.309 271.085 146.486 270.19 146.84 269.432C147.193 268.673 147.686 268.087 148.316 267.674C148.947 267.261 149.676 267.054 150.502 267.054C151.142 267.054 151.646 267.161 152.017 267.374C152.392 267.582 152.678 267.821 152.874 268.089C153.074 268.354 153.23 268.571 153.34 268.741H153.468V263.909H154.977V277H153.519V275.491H153.34C153.23 275.67 153.072 275.896 152.867 276.169C152.663 276.437 152.371 276.678 151.992 276.891C151.612 277.1 151.107 277.205 150.477 277.205ZM150.681 275.849C151.286 275.849 151.798 275.692 152.215 275.376C152.633 275.057 152.95 274.616 153.168 274.053C153.385 273.487 153.494 272.832 153.494 272.091C153.494 271.358 153.387 270.717 153.174 270.167C152.961 269.613 152.646 269.183 152.228 268.876C151.811 268.565 151.295 268.409 150.681 268.409C150.042 268.409 149.509 268.573 149.083 268.901C148.661 269.225 148.344 269.666 148.131 270.224C147.922 270.778 147.818 271.401 147.818 272.091C147.818 272.79 147.924 273.425 148.137 273.996C148.355 274.562 148.674 275.014 149.096 275.351C149.522 275.683 150.051 275.849 150.681 275.849Z" fill="white"/>
<path d="M122.459 314.636V298.273H123.507V314.636H122.459ZM125.239 303.674C125.188 303.158 124.969 302.758 124.581 302.472C124.193 302.187 123.667 302.044 123.002 302.044C122.55 302.044 122.169 302.108 121.858 302.236C121.547 302.359 121.308 302.532 121.142 302.754C120.98 302.975 120.899 303.227 120.899 303.508C120.891 303.742 120.94 303.947 121.046 304.121C121.157 304.296 121.308 304.447 121.5 304.575C121.692 304.699 121.913 304.808 122.165 304.901C122.416 304.991 122.685 305.067 122.97 305.131L124.146 305.413C124.717 305.54 125.241 305.711 125.719 305.924C126.196 306.137 126.609 306.399 126.959 306.71C127.308 307.021 127.579 307.388 127.771 307.81C127.967 308.232 128.067 308.715 128.071 309.261C128.067 310.062 127.862 310.756 127.457 311.344C127.057 311.928 126.477 312.382 125.719 312.706C124.964 313.026 124.055 313.185 122.989 313.185C121.933 313.185 121.012 313.023 120.228 312.7C119.448 312.376 118.839 311.896 118.4 311.261C117.965 310.622 117.737 309.832 117.716 308.89H120.394C120.424 309.329 120.55 309.695 120.771 309.989C120.997 310.279 121.298 310.499 121.673 310.648C122.052 310.793 122.48 310.865 122.957 310.865C123.426 310.865 123.833 310.797 124.178 310.661C124.528 310.524 124.798 310.335 124.99 310.092C125.182 309.849 125.278 309.57 125.278 309.254C125.278 308.96 125.19 308.713 125.016 308.513C124.845 308.312 124.594 308.142 124.261 308.001C123.933 307.861 123.531 307.733 123.053 307.618L121.628 307.26C120.524 306.991 119.653 306.572 119.013 306.001C118.374 305.43 118.057 304.661 118.061 303.693C118.057 302.901 118.268 302.208 118.694 301.616C119.124 301.023 119.714 300.561 120.464 300.229C121.214 299.896 122.067 299.73 123.021 299.73C123.993 299.73 124.841 299.896 125.565 300.229C126.294 300.561 126.861 301.023 127.266 301.616C127.67 302.208 127.879 302.894 127.892 303.674H125.239ZM129.856 313V311.006L134.516 306.691C134.912 306.308 135.244 305.962 135.513 305.656C135.786 305.349 135.992 305.048 136.133 304.754C136.274 304.456 136.344 304.134 136.344 303.789C136.344 303.406 136.257 303.075 136.082 302.798C135.907 302.517 135.669 302.302 135.366 302.153C135.063 301.999 134.72 301.923 134.337 301.923C133.936 301.923 133.587 302.004 133.289 302.165C132.99 302.327 132.76 302.56 132.598 302.862C132.436 303.165 132.355 303.525 132.355 303.942H129.728C129.728 303.086 129.922 302.342 130.31 301.712C130.698 301.081 131.241 300.593 131.94 300.248C132.639 299.903 133.444 299.73 134.356 299.73C135.294 299.73 136.11 299.896 136.804 300.229C137.503 300.557 138.046 301.013 138.434 301.597C138.822 302.18 139.016 302.849 139.016 303.604C139.016 304.098 138.918 304.586 138.722 305.067C138.53 305.549 138.187 306.084 137.693 306.672C137.198 307.256 136.502 307.957 135.602 308.775L133.691 310.648V310.737H139.188V313H129.856ZM144.179 311.21L144.109 311.913C144.053 312.476 143.947 313.036 143.789 313.594C143.636 314.157 143.474 314.666 143.303 315.122C143.137 315.578 143.003 315.936 142.901 316.196H141.136C141.2 315.945 141.288 315.593 141.398 315.141C141.509 314.694 141.614 314.191 141.712 313.633C141.81 313.075 141.871 312.506 141.897 311.926L141.929 311.21H144.179ZM151.319 313.179C150.415 313.179 149.61 313.013 148.903 312.68C148.2 312.348 147.641 311.89 147.228 311.306C146.815 310.722 146.599 310.053 146.582 309.299H149.267C149.297 309.806 149.51 310.217 149.906 310.533C150.303 310.848 150.773 311.006 151.319 311.006C151.754 311.006 152.137 310.91 152.469 310.718C152.806 310.522 153.068 310.251 153.256 309.906C153.447 309.557 153.543 309.156 153.543 308.705C153.543 308.244 153.445 307.839 153.249 307.49C153.058 307.141 152.791 306.868 152.45 306.672C152.109 306.476 151.719 306.376 151.281 306.371C150.897 306.371 150.524 306.45 150.162 306.608C149.804 306.766 149.525 306.981 149.325 307.254L146.864 306.812L147.484 299.909H155.487V302.172H149.766L149.427 305.451H149.504C149.734 305.127 150.081 304.859 150.545 304.646C151.01 304.433 151.53 304.326 152.105 304.326C152.893 304.326 153.597 304.511 154.214 304.882C154.832 305.253 155.32 305.762 155.678 306.41C156.036 307.053 156.213 307.795 156.209 308.634C156.213 309.516 156.009 310.3 155.595 310.987C155.186 311.668 154.613 312.205 153.876 312.597C153.143 312.985 152.29 313.179 151.319 313.179ZM163.163 313.179C162.49 313.175 161.84 313.062 161.214 312.84C160.592 312.619 160.033 312.259 159.539 311.76C159.045 311.261 158.653 310.601 158.363 309.778C158.077 308.956 157.935 307.946 157.935 306.749C157.939 305.649 158.065 304.667 158.312 303.802C158.563 302.933 158.921 302.195 159.386 301.59C159.854 300.985 160.415 300.525 161.067 300.21C161.719 299.89 162.45 299.73 163.259 299.73C164.133 299.73 164.904 299.901 165.573 300.241C166.242 300.578 166.779 301.036 167.184 301.616C167.593 302.195 167.84 302.845 167.925 303.565H165.196C165.089 303.109 164.866 302.751 164.525 302.491C164.184 302.232 163.762 302.102 163.259 302.102C162.407 302.102 161.759 302.472 161.316 303.214C160.877 303.955 160.653 304.963 160.645 306.237H160.734C160.93 305.849 161.195 305.519 161.527 305.246C161.864 304.969 162.245 304.759 162.671 304.614C163.102 304.464 163.555 304.39 164.033 304.39C164.808 304.39 165.499 304.573 166.104 304.94C166.709 305.302 167.186 305.8 167.536 306.435C167.885 307.07 168.06 307.797 168.06 308.615C168.06 309.501 167.853 310.29 167.44 310.98C167.031 311.67 166.457 312.212 165.72 312.604C164.987 312.991 164.135 313.183 163.163 313.179ZM163.151 311.006C163.577 311.006 163.958 310.903 164.295 310.699C164.631 310.494 164.896 310.217 165.087 309.868C165.279 309.518 165.375 309.126 165.375 308.692C165.375 308.257 165.279 307.867 165.087 307.522C164.9 307.177 164.64 306.902 164.308 306.697C163.975 306.493 163.596 306.391 163.17 306.391C162.85 306.391 162.554 306.45 162.281 306.57C162.013 306.689 161.776 306.855 161.572 307.068C161.371 307.281 161.214 307.528 161.099 307.81C160.984 308.087 160.926 308.383 160.926 308.698C160.926 309.12 161.022 309.506 161.214 309.855C161.41 310.205 161.674 310.484 162.006 310.692C162.343 310.901 162.724 311.006 163.151 311.006ZM174.759 299.73C175.432 299.73 176.08 299.843 176.702 300.069C177.328 300.295 177.886 300.655 178.376 301.149C178.871 301.643 179.261 302.3 179.546 303.118C179.836 303.932 179.983 304.931 179.987 306.116C179.987 307.228 179.862 308.221 179.61 309.094C179.363 309.964 179.007 310.703 178.543 311.312C178.078 311.922 177.518 312.386 176.862 312.706C176.205 313.021 175.472 313.179 174.663 313.179C173.789 313.179 173.018 313.011 172.349 312.674C171.68 312.333 171.141 311.871 170.732 311.287C170.327 310.699 170.082 310.038 169.996 309.305H172.726C172.832 309.783 173.056 310.153 173.397 310.418C173.738 310.678 174.16 310.808 174.663 310.808C175.515 310.808 176.163 310.437 176.606 309.695C177.049 308.95 177.273 307.929 177.277 306.634H177.188C176.991 307.017 176.727 307.347 176.395 307.624C176.063 307.897 175.681 308.108 175.251 308.257C174.825 308.406 174.371 308.481 173.889 308.481C173.118 308.481 172.43 308.3 171.825 307.938C171.219 307.575 170.742 307.077 170.393 306.442C170.043 305.807 169.869 305.082 169.869 304.268C169.864 303.391 170.067 302.609 170.476 301.923C170.885 301.237 171.456 300.7 172.189 300.312C172.926 299.92 173.783 299.726 174.759 299.73ZM174.778 301.903C174.347 301.903 173.964 302.006 173.627 302.21C173.295 302.415 173.031 302.69 172.835 303.035C172.643 303.38 172.549 303.766 172.553 304.192C172.553 304.622 172.647 305.01 172.835 305.355C173.026 305.696 173.286 305.969 173.614 306.173C173.947 306.374 174.326 306.474 174.752 306.474C175.072 306.474 175.368 306.414 175.641 306.295C175.913 306.175 176.15 306.011 176.35 305.803C176.555 305.589 176.714 305.344 176.83 305.067C176.945 304.79 177.002 304.496 177.002 304.185C176.998 303.772 176.9 303.393 176.708 303.048C176.516 302.702 176.252 302.425 175.915 302.217C175.579 302.008 175.2 301.903 174.778 301.903Z" fill="white"/>
<path d="M120.455 412.909L120.545 410.409L118.432 411.75L117.886 410.795L120.114 409.636L117.886 408.477L118.432 407.523L120.545 408.864L120.455 406.364H121.545L121.455 408.864L123.568 407.523L124.114 408.477L121.886 409.636L124.114 410.795L123.568 411.75L121.455 410.409L121.545 412.909H120.455ZM129.841 418.159C129.174 418.159 128.574 418.027 128.04 417.761C127.506 417.496 127.078 417.133 126.756 416.67C126.434 416.208 126.258 415.682 126.227 415.091H127.591C127.644 415.617 127.883 416.053 128.307 416.398C128.735 416.739 129.246 416.909 129.841 416.909C130.318 416.909 130.742 416.797 131.114 416.574C131.489 416.35 131.782 416.044 131.994 415.653C132.21 415.259 132.318 414.814 132.318 414.318C132.318 413.811 132.206 413.358 131.983 412.96C131.763 412.559 131.46 412.242 131.074 412.011C130.688 411.78 130.246 411.663 129.75 411.659C129.394 411.655 129.028 411.71 128.653 411.824C128.278 411.934 127.97 412.076 127.727 412.25L126.409 412.091L127.114 406.364H133.159V407.614H128.295L127.886 411.045H127.955C128.193 410.856 128.492 410.699 128.852 410.574C129.212 410.449 129.587 410.386 129.977 410.386C130.689 410.386 131.324 410.557 131.881 410.898C132.441 411.235 132.881 411.697 133.199 412.284C133.521 412.871 133.682 413.542 133.682 414.295C133.682 415.038 133.515 415.701 133.182 416.284C132.852 416.864 132.398 417.322 131.818 417.659C131.239 417.992 130.58 418.159 129.841 418.159ZM139.643 406.205C140.121 406.208 140.598 406.299 141.075 406.477C141.553 406.655 141.988 406.951 142.382 407.364C142.776 407.773 143.092 408.331 143.331 409.04C143.57 409.748 143.689 410.636 143.689 411.705C143.689 412.739 143.59 413.657 143.393 414.46C143.2 415.259 142.92 415.934 142.553 416.483C142.189 417.032 141.746 417.449 141.223 417.733C140.704 418.017 140.117 418.159 139.462 418.159C138.81 418.159 138.229 418.03 137.717 417.773C137.21 417.511 136.793 417.15 136.467 416.688C136.145 416.222 135.939 415.682 135.848 415.068H137.234C137.359 415.602 137.607 416.044 137.979 416.392C138.354 416.737 138.848 416.909 139.462 416.909C140.359 416.909 141.068 416.517 141.587 415.733C142.109 414.949 142.371 413.841 142.371 412.409H142.28C142.068 412.727 141.816 413.002 141.524 413.233C141.232 413.464 140.909 413.642 140.553 413.767C140.196 413.892 139.818 413.955 139.416 413.955C138.75 413.955 138.138 413.79 137.581 413.46C137.028 413.127 136.585 412.67 136.251 412.091C135.922 411.508 135.757 410.841 135.757 410.091C135.757 409.379 135.916 408.727 136.234 408.136C136.556 407.542 137.007 407.068 137.587 406.716C138.17 406.364 138.856 406.193 139.643 406.205ZM139.643 407.455C139.166 407.455 138.736 407.574 138.354 407.812C137.975 408.047 137.674 408.366 137.45 408.767C137.231 409.165 137.121 409.606 137.121 410.091C137.121 410.576 137.227 411.017 137.439 411.415C137.655 411.809 137.948 412.123 138.32 412.358C138.695 412.589 139.121 412.705 139.598 412.705C139.958 412.705 140.293 412.634 140.604 412.494C140.914 412.35 141.185 412.155 141.416 411.909C141.651 411.659 141.835 411.377 141.967 411.062C142.1 410.744 142.166 410.413 142.166 410.068C142.166 409.614 142.056 409.187 141.837 408.79C141.621 408.392 141.321 408.07 140.939 407.824C140.56 407.578 140.128 407.455 139.643 407.455ZM149.651 418.159C148.87 418.159 148.181 418.021 147.582 417.744C146.988 417.464 146.524 417.08 146.19 416.591C145.857 416.098 145.692 415.538 145.696 414.909C145.692 414.417 145.789 413.962 145.986 413.545C146.183 413.125 146.452 412.775 146.793 412.494C147.137 412.21 147.522 412.03 147.946 411.955V411.886C147.389 411.742 146.946 411.43 146.616 410.949C146.287 410.464 146.124 409.913 146.128 409.295C146.124 408.705 146.274 408.176 146.577 407.71C146.88 407.244 147.296 406.877 147.827 406.608C148.361 406.339 148.969 406.205 149.651 406.205C150.325 406.205 150.927 406.339 151.457 406.608C151.988 406.877 152.404 407.244 152.707 407.71C153.014 408.176 153.17 408.705 153.173 409.295C153.17 409.913 153.001 410.464 152.668 410.949C152.338 411.43 151.901 411.742 151.355 411.886V411.955C151.776 412.03 152.154 412.21 152.491 412.494C152.829 412.775 153.098 413.125 153.298 413.545C153.499 413.962 153.601 414.417 153.605 414.909C153.601 415.538 153.431 416.098 153.094 416.591C152.76 417.08 152.296 417.464 151.702 417.744C151.111 418.021 150.427 418.159 149.651 418.159ZM149.651 416.909C150.177 416.909 150.632 416.824 151.014 416.653C151.397 416.483 151.692 416.242 151.901 415.932C152.109 415.621 152.215 415.258 152.219 414.841C152.215 414.402 152.101 414.013 151.878 413.676C151.654 413.339 151.349 413.074 150.963 412.881C150.58 412.687 150.143 412.591 149.651 412.591C149.154 412.591 148.711 412.687 148.321 412.881C147.935 413.074 147.63 413.339 147.406 413.676C147.187 414.013 147.079 414.402 147.082 414.841C147.079 415.258 147.179 415.621 147.384 415.932C147.592 416.242 147.889 416.483 148.276 416.653C148.662 416.824 149.12 416.909 149.651 416.909ZM149.651 411.386C150.067 411.386 150.437 411.303 150.759 411.136C151.084 410.97 151.34 410.737 151.526 410.438C151.711 410.138 151.806 409.788 151.81 409.386C151.806 408.992 151.713 408.65 151.531 408.358C151.349 408.062 151.098 407.835 150.776 407.676C150.454 407.513 150.079 407.432 149.651 407.432C149.215 407.432 148.834 407.513 148.509 407.676C148.183 407.835 147.931 408.062 147.753 408.358C147.575 408.65 147.488 408.992 147.491 409.386C147.488 409.788 147.577 410.138 147.759 410.438C147.944 410.737 148.2 410.97 148.526 411.136C148.851 411.303 149.226 411.386 149.651 411.386ZM156.146 418L161.351 407.705V407.614H155.351V406.364H162.805V407.682L157.624 418H156.146Z" fill="white"/>
<path d="M244.318 406.364L245.67 415.205H245.778L250.057 406.364H252.784L246.841 418H243.67L241.585 406.364H244.318ZM256.645 406.364L254.713 418H252.253L254.185 406.364H256.645ZM264.413 409.744C264.432 409.271 264.294 408.905 263.999 408.648C263.707 408.39 263.266 408.261 262.675 408.261C262.273 408.261 261.925 408.318 261.629 408.432C261.334 408.542 261.097 408.695 260.919 408.892C260.745 409.085 260.637 409.309 260.595 409.562C260.554 409.771 260.567 409.953 260.635 410.108C260.707 410.263 260.819 410.398 260.97 410.511C261.125 410.621 261.309 410.718 261.521 410.801C261.733 410.881 261.959 410.949 262.197 411.006L263.197 411.256C263.686 411.369 264.125 411.521 264.516 411.71C264.91 411.9 265.239 412.133 265.504 412.409C265.773 412.686 265.963 413.011 266.072 413.386C266.182 413.761 266.197 414.191 266.118 414.676C265.997 415.388 265.714 416.006 265.271 416.528C264.828 417.047 264.247 417.451 263.527 417.739C262.807 418.023 261.974 418.165 261.027 418.165C260.088 418.165 259.294 418.021 258.646 417.733C257.999 417.445 257.527 417.019 257.232 416.455C256.94 415.886 256.853 415.184 256.97 414.347H259.351C259.309 414.737 259.366 415.062 259.521 415.324C259.68 415.581 259.917 415.777 260.232 415.909C260.546 416.038 260.915 416.102 261.339 416.102C261.76 416.102 262.133 416.042 262.459 415.92C262.788 415.799 263.055 415.631 263.26 415.415C263.464 415.199 263.589 414.951 263.635 414.67C263.68 414.409 263.641 414.189 263.516 414.011C263.391 413.833 263.19 413.682 262.913 413.557C262.641 413.428 262.302 413.314 261.896 413.216L260.68 412.898C259.741 412.659 259.031 412.286 258.55 411.778C258.069 411.271 257.896 410.587 258.033 409.727C258.154 409.023 258.447 408.407 258.913 407.881C259.383 407.35 259.974 406.939 260.686 406.648C261.402 406.352 262.184 406.205 263.033 406.205C263.896 406.205 264.625 406.354 265.22 406.653C265.815 406.949 266.249 407.362 266.521 407.892C266.794 408.422 266.877 409.04 266.771 409.744H264.413ZM268.962 418H266.325L272.274 406.364H275.445L277.524 418H274.888L273.473 409.023H273.382L268.962 418ZM269.564 413.426H275.791L275.462 415.347H269.234L269.564 413.426Z" fill="white"/>
<path d="M265.744 162.182C265.668 161.534 265.357 161.031 264.811 160.673C264.266 160.315 263.597 160.136 262.804 160.136C262.224 160.136 261.717 160.23 261.283 160.418C260.852 160.605 260.516 160.863 260.273 161.191C260.034 161.519 259.915 161.892 259.915 162.31C259.915 162.659 259.998 162.96 260.164 163.211C260.335 163.458 260.552 163.665 260.816 163.831C261.08 163.993 261.357 164.127 261.647 164.234C261.937 164.336 262.203 164.419 262.446 164.483L263.776 164.841C264.116 164.93 264.496 165.054 264.913 165.212C265.335 165.369 265.738 165.585 266.121 165.857C266.509 166.126 266.829 166.471 267.08 166.893C267.332 167.315 267.457 167.832 267.457 168.446C267.457 169.153 267.272 169.793 266.901 170.364C266.535 170.935 265.998 171.388 265.29 171.725C264.587 172.062 263.733 172.23 262.727 172.23C261.79 172.23 260.978 172.079 260.292 171.776C259.61 171.474 259.073 171.052 258.681 170.511C258.293 169.969 258.074 169.341 258.023 168.625H259.659C259.702 169.119 259.868 169.528 260.158 169.852C260.452 170.172 260.822 170.411 261.27 170.568C261.722 170.722 262.207 170.798 262.727 170.798C263.332 170.798 263.876 170.7 264.357 170.504C264.839 170.304 265.22 170.027 265.501 169.673C265.783 169.315 265.923 168.898 265.923 168.42C265.923 167.986 265.802 167.632 265.559 167.359C265.316 167.087 264.996 166.865 264.6 166.695C264.204 166.524 263.776 166.375 263.315 166.247L261.705 165.787C260.682 165.493 259.872 165.073 259.276 164.528C258.679 163.982 258.381 163.268 258.381 162.386C258.381 161.653 258.579 161.014 258.975 160.469C259.376 159.919 259.913 159.493 260.586 159.19C261.263 158.884 262.02 158.73 262.855 158.73C263.699 158.73 264.449 158.881 265.105 159.184C265.761 159.482 266.281 159.891 266.665 160.411C267.053 160.931 267.257 161.521 267.278 162.182H265.744ZM269.859 172V162.182H271.368V172H269.859ZM270.626 160.545C270.332 160.545 270.079 160.445 269.866 160.245C269.657 160.045 269.552 159.804 269.552 159.523C269.552 159.241 269.657 159.001 269.866 158.8C270.079 158.6 270.332 158.5 270.626 158.5C270.92 158.5 271.172 158.6 271.381 158.8C271.594 159.001 271.7 159.241 271.7 159.523C271.7 159.804 271.594 160.045 271.381 160.245C271.172 160.445 270.92 160.545 270.626 160.545ZM275.639 158.909V172H274.131V158.909H275.639ZM286.431 162.182L282.8 172H281.266L277.635 162.182H279.271L281.982 170.006H282.084L284.794 162.182H286.431ZM292.187 172.205C291.241 172.205 290.425 171.996 289.738 171.578C289.057 171.156 288.53 170.568 288.16 169.814C287.793 169.055 287.61 168.173 287.61 167.168C287.61 166.162 287.793 165.276 288.16 164.509C288.53 163.737 289.046 163.136 289.706 162.706C290.371 162.271 291.147 162.054 292.033 162.054C292.545 162.054 293.05 162.139 293.548 162.31C294.047 162.48 294.501 162.757 294.91 163.141C295.319 163.52 295.645 164.023 295.888 164.649C296.131 165.276 296.252 166.047 296.252 166.963V167.602H288.684V166.298H294.718C294.718 165.744 294.607 165.25 294.385 164.815C294.168 164.381 293.857 164.038 293.452 163.786C293.052 163.535 292.579 163.409 292.033 163.409C291.432 163.409 290.912 163.558 290.474 163.857C290.039 164.151 289.704 164.534 289.47 165.007C289.236 165.48 289.118 165.987 289.118 166.528V167.398C289.118 168.139 289.246 168.768 289.502 169.283C289.762 169.795 290.122 170.185 290.582 170.453C291.042 170.717 291.577 170.849 292.187 170.849C292.583 170.849 292.941 170.794 293.26 170.683C293.584 170.568 293.863 170.398 294.098 170.172C294.332 169.942 294.513 169.656 294.641 169.315L296.099 169.724C295.945 170.219 295.687 170.653 295.325 171.028C294.963 171.399 294.515 171.689 293.983 171.898C293.45 172.102 292.851 172.205 292.187 172.205ZM298.547 172V162.182H300.004V163.665H300.106C300.285 163.179 300.609 162.785 301.078 162.482C301.547 162.18 302.075 162.028 302.663 162.028C302.774 162.028 302.912 162.031 303.079 162.035C303.245 162.039 303.371 162.045 303.456 162.054V163.588C303.405 163.575 303.287 163.556 303.104 163.531C302.925 163.501 302.736 163.486 302.535 163.486C302.058 163.486 301.632 163.586 301.257 163.786C300.886 163.982 300.592 164.255 300.375 164.604C300.162 164.95 300.055 165.344 300.055 165.787V172H298.547Z" fill="#220022"/>
<path d="M262.459 209.636V193.273H263.507V209.636H262.459ZM265.239 198.674C265.188 198.158 264.969 197.758 264.581 197.472C264.193 197.187 263.667 197.044 263.002 197.044C262.55 197.044 262.169 197.108 261.858 197.236C261.547 197.359 261.308 197.532 261.142 197.754C260.98 197.975 260.899 198.227 260.899 198.508C260.891 198.742 260.94 198.947 261.046 199.121C261.157 199.296 261.308 199.447 261.5 199.575C261.692 199.699 261.913 199.808 262.165 199.901C262.416 199.991 262.685 200.067 262.97 200.131L264.146 200.413C264.717 200.54 265.241 200.711 265.719 200.924C266.196 201.137 266.609 201.399 266.959 201.71C267.308 202.021 267.579 202.388 267.771 202.81C267.967 203.232 268.067 203.715 268.071 204.261C268.067 205.062 267.862 205.756 267.457 206.344C267.057 206.928 266.477 207.382 265.719 207.706C264.964 208.026 264.055 208.185 262.989 208.185C261.933 208.185 261.012 208.023 260.228 207.7C259.448 207.376 258.839 206.896 258.4 206.261C257.965 205.622 257.737 204.832 257.716 203.89H260.394C260.424 204.329 260.55 204.695 260.771 204.989C260.997 205.279 261.298 205.499 261.673 205.648C262.052 205.793 262.48 205.865 262.957 205.865C263.426 205.865 263.833 205.797 264.178 205.661C264.528 205.524 264.798 205.335 264.99 205.092C265.182 204.849 265.278 204.57 265.278 204.254C265.278 203.96 265.19 203.713 265.016 203.513C264.845 203.312 264.594 203.142 264.261 203.001C263.933 202.861 263.531 202.733 263.053 202.618L261.628 202.26C260.524 201.991 259.653 201.572 259.013 201.001C258.374 200.43 258.057 199.661 258.061 198.693C258.057 197.901 258.268 197.208 258.694 196.616C259.124 196.023 259.714 195.561 260.464 195.229C261.214 194.896 262.067 194.73 263.021 194.73C263.993 194.73 264.841 194.896 265.565 195.229C266.294 195.561 266.861 196.023 267.266 196.616C267.67 197.208 267.879 197.894 267.892 198.674H265.239ZM275.551 194.909V208H272.784V197.536H272.707L269.709 199.415V196.961L272.95 194.909H275.551ZM280.945 206.21L280.874 206.913C280.819 207.476 280.712 208.036 280.555 208.594C280.401 209.157 280.239 209.666 280.069 210.122C279.903 210.578 279.768 210.936 279.666 211.196H277.902C277.966 210.945 278.053 210.593 278.164 210.141C278.275 209.694 278.379 209.191 278.477 208.633C278.575 208.075 278.637 207.506 278.663 206.926L278.695 206.21H280.945ZM283.409 208V206.006L288.069 201.691C288.465 201.308 288.797 200.962 289.066 200.656C289.338 200.349 289.545 200.048 289.686 199.754C289.826 199.456 289.897 199.134 289.897 198.789C289.897 198.406 289.809 198.075 289.635 197.798C289.46 197.517 289.221 197.302 288.919 197.153C288.616 196.999 288.273 196.923 287.89 196.923C287.489 196.923 287.14 197.004 286.841 197.165C286.543 197.327 286.313 197.56 286.151 197.862C285.989 198.165 285.908 198.525 285.908 198.942H283.281C283.281 198.086 283.475 197.342 283.863 196.712C284.25 196.081 284.794 195.593 285.493 195.248C286.191 194.903 286.997 194.73 287.909 194.73C288.846 194.73 289.662 194.896 290.357 195.229C291.056 195.557 291.599 196.013 291.987 196.597C292.375 197.18 292.569 197.849 292.569 198.604C292.569 199.098 292.471 199.586 292.275 200.067C292.083 200.549 291.74 201.084 291.245 201.672C290.751 202.256 290.054 202.957 289.155 203.775L287.244 205.648V205.737H292.741V208H283.409ZM294.267 205.699V203.519L299.732 194.909H301.612V197.926H300.499L297.054 203.379V203.481H304.82V205.699H294.267ZM300.551 208V205.034L300.602 204.069V194.909H303.197V208H300.551ZM311.548 208.179C310.564 208.179 309.688 208.019 308.921 207.7C308.158 207.376 307.559 206.935 307.125 206.376C306.69 205.818 306.473 205.185 306.473 204.478C306.473 203.933 306.596 203.432 306.844 202.976C307.095 202.516 307.436 202.134 307.866 201.832C308.297 201.525 308.778 201.329 309.311 201.244V201.154C308.612 201.013 308.045 200.675 307.611 200.138C307.176 199.597 306.959 198.968 306.959 198.252C306.959 197.575 307.157 196.972 307.553 196.443C307.949 195.911 308.493 195.493 309.183 195.19C309.878 194.884 310.666 194.73 311.548 194.73C312.43 194.73 313.216 194.884 313.907 195.19C314.601 195.497 315.147 195.917 315.543 196.45C315.939 196.978 316.14 197.579 316.144 198.252C316.14 198.972 315.918 199.601 315.479 200.138C315.04 200.675 314.478 201.013 313.792 201.154V201.244C314.316 201.329 314.791 201.525 315.217 201.832C315.648 202.134 315.988 202.516 316.24 202.976C316.496 203.432 316.626 203.933 316.63 204.478C316.626 205.185 316.406 205.818 315.971 206.376C315.537 206.935 314.936 207.376 314.169 207.7C313.406 208.019 312.532 208.179 311.548 208.179ZM311.548 206.146C311.987 206.146 312.371 206.067 312.699 205.91C313.027 205.748 313.282 205.526 313.466 205.245C313.653 204.96 313.747 204.631 313.747 204.261C313.747 203.881 313.651 203.547 313.459 203.257C313.268 202.963 313.008 202.733 312.68 202.567C312.351 202.396 311.974 202.311 311.548 202.311C311.126 202.311 310.749 202.396 310.417 202.567C310.084 202.733 309.822 202.963 309.631 203.257C309.443 203.547 309.349 203.881 309.349 204.261C309.349 204.631 309.441 204.96 309.624 205.245C309.807 205.526 310.065 205.748 310.398 205.91C310.73 206.067 311.113 206.146 311.548 206.146ZM311.548 200.298C311.915 200.298 312.241 200.223 312.526 200.074C312.812 199.925 313.035 199.718 313.197 199.454C313.359 199.19 313.44 198.885 313.44 198.54C313.44 198.199 313.359 197.901 313.197 197.645C313.035 197.385 312.814 197.183 312.532 197.038C312.251 196.888 311.923 196.814 311.548 196.814C311.177 196.814 310.849 196.888 310.564 197.038C310.278 197.183 310.055 197.385 309.893 197.645C309.735 197.901 309.656 198.199 309.656 198.54C309.656 198.885 309.737 199.19 309.899 199.454C310.061 199.718 310.285 199.925 310.57 200.074C310.856 200.223 311.182 200.298 311.548 200.298Z" fill="#220022"/>
<path d="M260.455 307.909L260.545 305.409L258.432 306.75L257.886 305.795L260.114 304.636L257.886 303.477L258.432 302.523L260.545 303.864L260.455 301.364H261.545L261.455 303.864L263.568 302.523L264.114 303.477L261.886 304.636L264.114 305.795L263.568 306.75L261.455 305.409L261.545 307.909H260.455ZM269.841 313.159C269.174 313.159 268.574 313.027 268.04 312.761C267.506 312.496 267.078 312.133 266.756 311.67C266.434 311.208 266.258 310.682 266.227 310.091H267.591C267.644 310.617 267.883 311.053 268.307 311.398C268.735 311.739 269.246 311.909 269.841 311.909C270.318 311.909 270.742 311.797 271.114 311.574C271.489 311.35 271.782 311.044 271.994 310.653C272.21 310.259 272.318 309.814 272.318 309.318C272.318 308.811 272.206 308.358 271.983 307.96C271.763 307.559 271.46 307.242 271.074 307.011C270.688 306.78 270.246 306.663 269.75 306.659C269.394 306.655 269.028 306.71 268.653 306.824C268.278 306.934 267.97 307.076 267.727 307.25L266.409 307.091L267.114 301.364H273.159V302.614H268.295L267.886 306.045H267.955C268.193 305.856 268.492 305.699 268.852 305.574C269.212 305.449 269.587 305.386 269.977 305.386C270.689 305.386 271.324 305.557 271.881 305.898C272.441 306.235 272.881 306.697 273.199 307.284C273.521 307.871 273.682 308.542 273.682 309.295C273.682 310.038 273.515 310.701 273.182 311.284C272.852 311.864 272.398 312.322 271.818 312.659C271.239 312.992 270.58 313.159 269.841 313.159ZM279.643 301.205C280.121 301.208 280.598 301.299 281.075 301.477C281.553 301.655 281.988 301.951 282.382 302.364C282.776 302.773 283.092 303.331 283.331 304.04C283.57 304.748 283.689 305.636 283.689 306.705C283.689 307.739 283.59 308.657 283.393 309.46C283.2 310.259 282.92 310.934 282.553 311.483C282.189 312.032 281.746 312.449 281.223 312.733C280.704 313.017 280.117 313.159 279.462 313.159C278.81 313.159 278.229 313.03 277.717 312.773C277.21 312.511 276.793 312.15 276.467 311.688C276.145 311.222 275.939 310.682 275.848 310.068H277.234C277.359 310.602 277.607 311.044 277.979 311.392C278.354 311.737 278.848 311.909 279.462 311.909C280.359 311.909 281.068 311.517 281.587 310.733C282.109 309.949 282.371 308.841 282.371 307.409H282.28C282.068 307.727 281.816 308.002 281.524 308.233C281.232 308.464 280.909 308.642 280.553 308.767C280.196 308.892 279.818 308.955 279.416 308.955C278.75 308.955 278.138 308.79 277.581 308.46C277.028 308.127 276.585 307.67 276.251 307.091C275.922 306.508 275.757 305.841 275.757 305.091C275.757 304.379 275.916 303.727 276.234 303.136C276.556 302.542 277.007 302.068 277.587 301.716C278.17 301.364 278.856 301.193 279.643 301.205ZM279.643 302.455C279.166 302.455 278.736 302.574 278.354 302.812C277.975 303.047 277.674 303.366 277.45 303.767C277.231 304.165 277.121 304.606 277.121 305.091C277.121 305.576 277.227 306.017 277.439 306.415C277.655 306.809 277.948 307.123 278.32 307.358C278.695 307.589 279.121 307.705 279.598 307.705C279.958 307.705 280.293 307.634 280.604 307.494C280.914 307.35 281.185 307.155 281.416 306.909C281.651 306.659 281.835 306.377 281.967 306.062C282.1 305.744 282.166 305.413 282.166 305.068C282.166 304.614 282.056 304.187 281.837 303.79C281.621 303.392 281.321 303.07 280.939 302.824C280.56 302.578 280.128 302.455 279.643 302.455ZM289.651 313.159C288.87 313.159 288.181 313.021 287.582 312.744C286.988 312.464 286.524 312.08 286.19 311.591C285.857 311.098 285.692 310.538 285.696 309.909C285.692 309.417 285.789 308.962 285.986 308.545C286.183 308.125 286.452 307.775 286.793 307.494C287.137 307.21 287.522 307.03 287.946 306.955V306.886C287.389 306.742 286.946 306.43 286.616 305.949C286.287 305.464 286.124 304.913 286.128 304.295C286.124 303.705 286.274 303.176 286.577 302.71C286.88 302.244 287.296 301.877 287.827 301.608C288.361 301.339 288.969 301.205 289.651 301.205C290.325 301.205 290.927 301.339 291.457 301.608C291.988 301.877 292.404 302.244 292.707 302.71C293.014 303.176 293.17 303.705 293.173 304.295C293.17 304.913 293.001 305.464 292.668 305.949C292.338 306.43 291.901 306.742 291.355 306.886V306.955C291.776 307.03 292.154 307.21 292.491 307.494C292.829 307.775 293.098 308.125 293.298 308.545C293.499 308.962 293.601 309.417 293.605 309.909C293.601 310.538 293.431 311.098 293.094 311.591C292.76 312.08 292.296 312.464 291.702 312.744C291.111 313.021 290.427 313.159 289.651 313.159ZM289.651 311.909C290.177 311.909 290.632 311.824 291.014 311.653C291.397 311.483 291.692 311.242 291.901 310.932C292.109 310.621 292.215 310.258 292.219 309.841C292.215 309.402 292.101 309.013 291.878 308.676C291.654 308.339 291.349 308.074 290.963 307.881C290.58 307.687 290.143 307.591 289.651 307.591C289.154 307.591 288.711 307.687 288.321 307.881C287.935 308.074 287.63 308.339 287.406 308.676C287.187 309.013 287.079 309.402 287.082 309.841C287.079 310.258 287.179 310.621 287.384 310.932C287.592 311.242 287.889 311.483 288.276 311.653C288.662 311.824 289.12 311.909 289.651 311.909ZM289.651 306.386C290.067 306.386 290.437 306.303 290.759 306.136C291.084 305.97 291.34 305.737 291.526 305.438C291.711 305.138 291.806 304.788 291.81 304.386C291.806 303.992 291.713 303.65 291.531 303.358C291.349 303.062 291.098 302.835 290.776 302.676C290.454 302.513 290.079 302.432 289.651 302.432C289.215 302.432 288.834 302.513 288.509 302.676C288.183 302.835 287.931 303.062 287.753 303.358C287.575 303.65 287.488 303.992 287.491 304.386C287.488 304.788 287.577 305.138 287.759 305.438C287.944 305.737 288.2 305.97 288.526 306.136C288.851 306.303 289.226 306.386 289.651 306.386ZM296.146 313L301.351 302.705V302.614H295.351V301.364H302.805V302.682L297.624 313H296.146Z" fill="#220022"/>
<path d="M384.318 301.364L385.67 310.205H385.778L390.057 301.364H392.784L386.841 313H383.67L381.585 301.364H384.318ZM396.645 301.364L394.713 313H392.253L394.185 301.364H396.645ZM404.413 304.744C404.432 304.271 404.294 303.905 403.999 303.648C403.707 303.39 403.266 303.261 402.675 303.261C402.273 303.261 401.925 303.318 401.629 303.432C401.334 303.542 401.097 303.695 400.919 303.892C400.745 304.085 400.637 304.309 400.595 304.562C400.554 304.771 400.567 304.953 400.635 305.108C400.707 305.263 400.819 305.398 400.97 305.511C401.125 305.621 401.309 305.718 401.521 305.801C401.733 305.881 401.959 305.949 402.197 306.006L403.197 306.256C403.686 306.369 404.125 306.521 404.516 306.71C404.91 306.9 405.239 307.133 405.504 307.409C405.773 307.686 405.963 308.011 406.072 308.386C406.182 308.761 406.197 309.191 406.118 309.676C405.997 310.388 405.714 311.006 405.271 311.528C404.828 312.047 404.247 312.451 403.527 312.739C402.807 313.023 401.974 313.165 401.027 313.165C400.088 313.165 399.294 313.021 398.646 312.733C397.999 312.445 397.527 312.019 397.232 311.455C396.94 310.886 396.853 310.184 396.97 309.347H399.351C399.309 309.737 399.366 310.062 399.521 310.324C399.68 310.581 399.917 310.777 400.232 310.909C400.546 311.038 400.915 311.102 401.339 311.102C401.76 311.102 402.133 311.042 402.459 310.92C402.788 310.799 403.055 310.631 403.26 310.415C403.464 310.199 403.589 309.951 403.635 309.67C403.68 309.409 403.641 309.189 403.516 309.011C403.391 308.833 403.19 308.682 402.913 308.557C402.641 308.428 402.302 308.314 401.896 308.216L400.68 307.898C399.741 307.659 399.031 307.286 398.55 306.778C398.069 306.271 397.896 305.587 398.033 304.727C398.154 304.023 398.447 303.407 398.913 302.881C399.383 302.35 399.974 301.939 400.686 301.648C401.402 301.352 402.184 301.205 403.033 301.205C403.896 301.205 404.625 301.354 405.22 301.653C405.815 301.949 406.249 302.362 406.521 302.892C406.794 303.422 406.877 304.04 406.771 304.744H404.413ZM408.962 313H406.325L412.274 301.364H415.445L417.524 313H414.888L413.473 304.023H413.382L408.962 313ZM409.564 308.426H415.791L415.462 310.347H409.234L409.564 308.426Z" fill="#220022"/>
<g filter="url(#filter0_d_25_77)">
<rect x="327" y="403" width="67" height="295" rx="3" fill="white"/>
</g>
<path d="M340 479C340 476.239 342.239 474 345 474H394V508H345C342.239 508 340 505.761 340 503V479Z" fill="#202020"/>
<path fill-rule="evenodd" clip-rule="evenodd" d="M356.73 484.939V486.283L355.296 486.413C354.282 486.504 353.455 487.358 353.293 488.48C353.257 488.724 353.225 488.968 353.196 489.213C353.182 489.335 353.24 489.452 353.339 489.504L353.404 489.539C357.999 491.971 363.501 491.971 368.096 489.539L368.161 489.504C368.26 489.452 368.318 489.335 368.304 489.213C368.275 488.968 368.243 488.724 368.207 488.48C368.045 487.358 367.218 486.504 366.204 486.413L364.77 486.283V484.939C364.77 484.119 364.234 483.423 363.509 483.301L362.476 483.128C361.332 482.936 360.168 482.936 359.024 483.128L357.991 483.301C357.266 483.423 356.73 484.119 356.73 484.939ZM362.288 484.532C361.268 484.361 360.232 484.361 359.212 484.532L358.179 484.705C358.076 484.722 357.999 484.822 357.999 484.939V486.183C359.832 486.066 361.668 486.066 363.501 486.183V484.939C363.501 484.822 363.424 484.722 363.321 484.705L362.288 484.532Z" fill="white"/>
<path d="M368.468 491.194C368.462 491.061 368.337 490.978 368.229 491.032C363.513 493.366 357.987 493.366 353.271 491.032C353.163 490.978 353.038 491.061 353.032 491.194C352.946 493.003 353.033 494.819 353.293 496.612C353.455 497.735 354.282 498.588 355.296 498.68L356.88 498.823C359.456 499.055 362.044 499.055 364.62 498.823L366.204 498.68C367.218 498.588 368.045 497.735 368.207 496.612C368.467 494.819 368.554 493.003 368.468 491.194Z" fill="white"/>
<path d="M360.75 433.23C358.679 433.23 357 434.862 357 436.874C357 438.887 358.679 440.518 360.75 440.518C362.821 440.518 364.5 438.887 364.5 436.874C364.5 434.862 362.821 433.23 360.75 433.23Z" fill="#525252"/>
<path d="M356.75 442.462C354.679 442.462 353 444.093 353 446.105V447.26C353 447.992 353.546 448.616 354.289 448.734C358.568 449.413 362.932 449.413 367.211 448.734C367.954 448.616 368.5 447.992 368.5 447.26V446.105C368.5 444.093 366.821 442.462 364.75 442.462H364.409C364.225 442.462 364.041 442.49 363.866 442.546L363 442.82C361.538 443.284 359.962 443.284 358.5 442.82L357.634 442.546C357.459 442.49 357.275 442.462 357.091 442.462H356.75Z" fill="#525252"/>
<path d="M368.494 544.802C368.116 541.659 365.704 539.168 362.662 538.777C362.202 538.718 361.823 539.112 361.823 539.592V545.235C361.823 545.474 362.012 545.669 362.244 545.669H367.706C368.17 545.669 368.552 545.278 368.494 544.802Z" fill="#525252"/>
<path d="M360.143 540.026C356.198 540.026 353 543.33 353 547.405C353 551.48 356.198 554.784 360.143 554.784C364.088 554.784 367.286 551.48 367.286 547.405C367.286 547.165 367.097 546.971 366.865 546.971H360.983C360.751 546.971 360.563 546.777 360.563 546.537V540.46C360.563 540.22 360.375 540.026 360.143 540.026Z" fill="#525252"/>
<path fill-rule="evenodd" clip-rule="evenodd" d="M355.958 599.615V599.928H354.443C353.992 599.928 353.609 600.206 353.544 600.58L353.323 601.845C352.892 604.313 352.892 606.821 353.323 609.29C353.516 610.396 354.579 611.251 355.903 611.366L356.538 611.421C359.338 611.665 362.162 611.665 364.962 611.421L365.597 611.366C366.921 611.251 367.984 610.396 368.177 609.29C368.608 606.821 368.608 604.313 368.177 601.845L367.956 600.58C367.891 600.206 367.508 599.928 367.057 599.928H365.542V599.615C365.542 597.779 364.062 596.175 361.943 595.718C361.161 595.549 360.339 595.549 359.557 595.718C357.438 596.175 355.958 597.779 355.958 599.615ZM361.567 596.949C361.031 596.833 360.469 596.833 359.933 596.949C358.484 597.261 357.471 598.358 357.471 599.615V599.928H364.029V599.615C364.029 598.358 363.016 597.261 361.567 596.949ZM357.471 601.198C357.471 600.848 357.132 600.563 356.714 600.563C356.297 600.563 355.958 600.848 355.958 601.198V602.892C355.958 603.243 356.297 603.528 356.714 603.528C357.132 603.528 357.471 603.243 357.471 602.892V601.198ZM365.542 601.198C365.542 600.848 365.203 600.563 364.786 600.563C364.368 600.563 364.029 600.848 364.029 601.198V602.892C364.029 603.243 364.368 603.528 364.786 603.528C365.203 603.528 365.542 603.243 365.542 602.892V601.198Z" fill="#525252"/>
<path fill-rule="evenodd" clip-rule="evenodd" d="M357.276 652.571C359.703 652.344 362.14 652.359 364.565 652.616L366.026 652.77C367.13 652.887 368.025 653.927 368.193 655.285L368.285 656.032C368.598 658.564 368.569 661.143 368.199 663.664C368.016 664.908 367.143 665.811 366.124 665.811H358.046C357.86 665.811 357.678 665.869 357.514 665.978L353.994 668.325C353.785 668.464 353.532 668.457 353.329 668.306C353.125 668.155 353 667.882 353 667.587V658.076C353 655.197 354.788 652.804 357.102 652.587L357.276 652.571ZM357.275 658.095C356.653 658.095 356.15 658.72 356.15 659.491C356.15 660.262 356.653 660.887 357.275 660.887C357.896 660.887 358.399 660.262 358.399 659.491C358.399 658.72 357.896 658.095 357.275 658.095ZM360.874 658.095C360.253 658.095 359.749 658.72 359.749 659.491C359.749 660.262 360.253 660.887 360.874 660.887C361.496 660.887 361.999 660.262 361.999 659.491C361.999 658.72 361.496 658.095 360.874 658.095ZM363.349 659.491C363.349 658.72 363.853 658.095 364.474 658.095C365.095 658.095 365.599 658.72 365.599 659.491C365.599 660.262 365.095 660.887 364.474 660.887C363.853 660.887 363.349 660.262 363.349 659.491Z" fill="#525252"/>
<defs>
<filter id="filter0_d_25_77" x="323" y="403" width="75" height="303" filterUnits="userSpaceOnUse" color-interpolation-filters="sRGB">
<feFlood flood-opacity="0" result="BackgroundImageFix"/>
<feColorMatrix in="SourceAlpha" type="matrix" values="0 0 0 0 0 0 0 0 0 0 0 0 0 0 0 0 0 0 127 0" result="hardAlpha"/>
<feOffset dy="4"/>
<feGaussianBlur stdDeviation="2"/>
<feComposite in2="hardAlpha" operator="out"/>
<feColorMatrix type="matrix" values="0 0 0 0 0 0 0 0 0 0 0 0 0 0 0 0 0 0 0.08 0"/>
<feBlend mode="normal" in2="BackgroundImageFix" result="effect1_dropShadow_25_77"/>
<feBlend mode="normal" in="SourceGraphic" in2="effect1_dropShadow_25_77" result="shape"/>
</filter>
</defs>
</svg>
