<svg width="2210" height="1072" viewBox="0 0 2210 1072" fill="none" xmlns="http://www.w3.org/2000/svg">
<g clip-path="url(#clip0_37_24)">
<path d="M2122.5 230.436L2199 402.804L1733.5 138L1755.03 516.793L1351.75 247.851V607.995L855 311.868L978 727" stroke="#808080" stroke-width="2"/>
<g filter="url(#filter0_d_37_24)">
<rect x="1097" y="121" width="512" height="59" rx="5" fill="white"/>
</g>
<path d="M1143 158C1147.42 158 1151 154.418 1151 150C1151 145.582 1147.42 142 1143 142C1138.58 142 1135 145.582 1135 150C1135 154.418 1138.58 158 1143 158Z" stroke="#202020" stroke-width="2" stroke-linecap="round" stroke-linejoin="round"/>
<path d="M1153 160L1148.65 155.65" stroke="#202020" stroke-width="2" stroke-linecap="round" stroke-linejoin="round"/>
<path d="M1210.72 147.091C1210.63 146.371 1210.29 145.812 1209.68 145.415C1209.07 145.017 1208.33 144.818 1207.45 144.818C1206.8 144.818 1206.24 144.922 1205.76 145.131C1205.28 145.339 1204.91 145.625 1204.64 145.99C1204.37 146.355 1204.24 146.769 1204.24 147.233C1204.24 147.621 1204.33 147.955 1204.52 148.234C1204.71 148.509 1204.95 148.739 1205.24 148.923C1205.53 149.103 1205.84 149.252 1206.16 149.371C1206.49 149.484 1206.78 149.577 1207.05 149.648L1208.53 150.045C1208.91 150.145 1209.33 150.282 1209.79 150.457C1210.26 150.633 1210.71 150.872 1211.13 151.175C1211.57 151.473 1211.92 151.857 1212.2 152.325C1212.48 152.794 1212.62 153.369 1212.62 154.051C1212.62 154.837 1212.41 155.547 1212 156.182C1211.59 156.816 1211 157.321 1210.21 157.695C1209.43 158.069 1208.48 158.256 1207.36 158.256C1206.32 158.256 1205.42 158.088 1204.66 157.751C1203.9 157.415 1203.3 156.946 1202.87 156.345C1202.44 155.744 1202.19 155.045 1202.14 154.25H1203.95C1204 154.799 1204.19 155.254 1204.51 155.614C1204.84 155.969 1205.25 156.234 1205.74 156.409C1206.25 156.58 1206.79 156.665 1207.36 156.665C1208.04 156.665 1208.64 156.556 1209.17 156.338C1209.71 156.116 1210.13 155.808 1210.45 155.415C1210.76 155.017 1210.91 154.553 1210.91 154.023C1210.91 153.54 1210.78 153.147 1210.51 152.844C1210.24 152.541 1209.88 152.295 1209.44 152.105C1209 151.916 1208.53 151.75 1208.02 151.608L1206.23 151.097C1205.09 150.77 1204.19 150.304 1203.53 149.697C1202.87 149.091 1202.53 148.298 1202.53 147.318C1202.53 146.504 1202.75 145.794 1203.19 145.188C1203.64 144.577 1204.24 144.103 1204.98 143.767C1205.74 143.426 1206.58 143.256 1207.51 143.256C1208.44 143.256 1209.28 143.424 1210.01 143.76C1210.73 144.091 1211.31 144.546 1211.74 145.124C1212.17 145.701 1212.4 146.357 1212.42 147.091H1210.72ZM1219.86 158.227C1218.81 158.227 1217.9 157.995 1217.14 157.531C1216.38 157.062 1215.8 156.409 1215.39 155.571C1214.98 154.728 1214.78 153.748 1214.78 152.631C1214.78 151.513 1214.98 150.528 1215.39 149.676C1215.8 148.819 1216.37 148.152 1217.11 147.673C1217.84 147.19 1218.71 146.949 1219.69 146.949C1220.26 146.949 1220.82 147.044 1221.37 147.233C1221.93 147.422 1222.43 147.73 1222.89 148.156C1223.34 148.578 1223.7 149.136 1223.97 149.832C1224.24 150.528 1224.38 151.385 1224.38 152.403V153.114H1215.97V151.665H1222.67C1222.67 151.049 1222.55 150.5 1222.31 150.017C1222.06 149.534 1221.72 149.153 1221.27 148.874C1220.82 148.594 1220.3 148.455 1219.69 148.455C1219.02 148.455 1218.45 148.62 1217.96 148.952C1217.48 149.278 1217.1 149.705 1216.84 150.23C1216.58 150.756 1216.45 151.319 1216.45 151.92V152.886C1216.45 153.71 1216.59 154.409 1216.88 154.982C1217.17 155.55 1217.57 155.983 1218.08 156.281C1218.59 156.575 1219.18 156.722 1219.86 156.722C1220.3 156.722 1220.7 156.66 1221.06 156.537C1221.41 156.409 1221.73 156.22 1221.99 155.969C1222.25 155.713 1222.45 155.396 1222.59 155.017L1224.21 155.472C1224.04 156.021 1223.75 156.504 1223.35 156.92C1222.95 157.332 1222.45 157.654 1221.86 157.886C1221.27 158.114 1220.6 158.227 1219.86 158.227ZM1230.14 158.256C1229.45 158.256 1228.82 158.125 1228.26 157.865C1227.69 157.6 1227.25 157.219 1226.91 156.722C1226.58 156.22 1226.42 155.614 1226.42 154.903C1226.42 154.278 1226.54 153.772 1226.79 153.384C1227.03 152.991 1227.36 152.683 1227.77 152.46C1228.19 152.238 1228.64 152.072 1229.14 151.963C1229.64 151.849 1230.14 151.759 1230.65 151.693C1231.31 151.608 1231.85 151.544 1232.26 151.501C1232.68 151.454 1232.98 151.376 1233.17 151.267C1233.37 151.158 1233.46 150.969 1233.46 150.699V150.642C1233.46 149.941 1233.27 149.397 1232.89 149.009C1232.51 148.62 1231.93 148.426 1231.16 148.426C1230.36 148.426 1229.73 148.601 1229.28 148.952C1228.82 149.302 1228.51 149.676 1228.32 150.074L1226.73 149.506C1227.01 148.843 1227.39 148.327 1227.87 147.957C1228.34 147.583 1228.87 147.323 1229.43 147.176C1230 147.025 1230.56 146.949 1231.1 146.949C1231.46 146.949 1231.86 146.991 1232.31 147.077C1232.77 147.157 1233.21 147.325 1233.64 147.581C1234.07 147.837 1234.43 148.223 1234.71 148.739C1235 149.255 1235.14 149.946 1235.14 150.812V158H1233.46V156.523H1233.38C1233.26 156.759 1233.07 157.013 1232.81 157.283C1232.54 157.553 1232.19 157.782 1231.75 157.972C1231.31 158.161 1230.77 158.256 1230.14 158.256ZM1230.39 156.75C1231.06 156.75 1231.62 156.62 1232.07 156.359C1232.53 156.099 1232.88 155.763 1233.11 155.351C1233.34 154.939 1233.46 154.506 1233.46 154.051V152.517C1233.39 152.602 1233.24 152.68 1232.99 152.751C1232.76 152.818 1232.48 152.877 1232.17 152.929C1231.86 152.976 1231.56 153.019 1231.27 153.057C1230.98 153.09 1230.74 153.118 1230.56 153.142C1230.13 153.199 1229.72 153.291 1229.34 153.419C1228.97 153.542 1228.67 153.729 1228.43 153.98C1228.21 154.226 1228.09 154.562 1228.09 154.989C1228.09 155.571 1228.31 156.011 1228.74 156.31C1229.18 156.603 1229.73 156.75 1230.39 156.75ZM1238.2 158V147.091H1239.82V148.739H1239.93C1240.13 148.199 1240.49 147.761 1241.01 147.425C1241.53 147.089 1242.12 146.92 1242.77 146.92C1242.9 146.92 1243.05 146.923 1243.23 146.928C1243.42 146.932 1243.56 146.939 1243.65 146.949V148.653C1243.6 148.639 1243.47 148.618 1243.26 148.589C1243.06 148.556 1242.85 148.54 1242.63 148.54C1242.1 148.54 1241.63 148.651 1241.21 148.874C1240.8 149.091 1240.47 149.394 1240.23 149.783C1239.99 150.166 1239.87 150.604 1239.87 151.097V158H1238.2ZM1249.74 158.227C1248.72 158.227 1247.84 157.986 1247.1 157.503C1246.36 157.02 1245.79 156.355 1245.39 155.507C1245 154.66 1244.8 153.691 1244.8 152.602C1244.8 151.494 1245 150.517 1245.41 149.669C1245.82 148.817 1246.39 148.152 1247.13 147.673C1247.86 147.19 1248.73 146.949 1249.71 146.949C1250.48 146.949 1251.17 147.091 1251.78 147.375C1252.4 147.659 1252.9 148.057 1253.3 148.568C1253.69 149.08 1253.93 149.676 1254.03 150.358H1252.35C1252.23 149.861 1251.94 149.42 1251.5 149.037C1251.07 148.649 1250.48 148.455 1249.74 148.455C1249.09 148.455 1248.51 148.625 1248.02 148.966C1247.53 149.302 1247.15 149.778 1246.88 150.393C1246.61 151.004 1246.47 151.722 1246.47 152.545C1246.47 153.388 1246.6 154.122 1246.87 154.747C1247.14 155.372 1247.52 155.857 1248.01 156.203C1248.5 156.549 1249.08 156.722 1249.74 156.722C1250.17 156.722 1250.57 156.646 1250.93 156.494C1251.28 156.343 1251.58 156.125 1251.83 155.841C1252.07 155.557 1252.25 155.216 1252.35 154.818H1254.03C1253.93 155.462 1253.7 156.042 1253.33 156.558C1252.96 157.07 1252.47 157.477 1251.86 157.78C1251.25 158.078 1250.54 158.227 1249.74 158.227ZM1258.16 151.438V158H1256.48V143.455H1258.16V148.795H1258.3C1258.55 148.232 1258.94 147.785 1259.45 147.453C1259.96 147.117 1260.65 146.949 1261.51 146.949C1262.25 146.949 1262.9 147.098 1263.46 147.396C1264.02 147.69 1264.45 148.142 1264.76 148.753C1265.07 149.359 1265.23 150.131 1265.23 151.068V158H1263.55V151.182C1263.55 150.315 1263.33 149.645 1262.88 149.172C1262.43 148.694 1261.82 148.455 1261.02 148.455C1260.48 148.455 1259.98 148.571 1259.55 148.803C1259.12 149.035 1258.78 149.373 1258.52 149.818C1258.28 150.263 1258.16 150.803 1258.16 151.438Z" fill="#202020"/>
<rect x="336" y="647" width="452" height="251" rx="3" fill="#202020"/>
<circle cx="555" cy="813" r="18.5" stroke="#8D924A" stroke-width="3"/>
<path d="M455.327 717.711H451.283C451.21 717.188 451.059 716.723 450.831 716.317C450.603 715.904 450.311 715.554 449.954 715.264C449.597 714.975 449.184 714.753 448.717 714.599C448.255 714.446 447.753 714.369 447.212 714.369C446.233 714.369 445.38 714.612 444.654 715.098C443.928 715.578 443.365 716.28 442.964 717.203C442.564 718.12 442.364 719.234 442.364 720.545C442.364 721.893 442.564 723.026 442.964 723.943C443.371 724.86 443.937 725.553 444.663 726.021C445.39 726.488 446.23 726.722 447.184 726.722C447.719 726.722 448.215 726.652 448.67 726.51C449.132 726.368 449.541 726.162 449.898 725.891C450.255 725.614 450.551 725.279 450.785 724.885C451.025 724.491 451.191 724.042 451.283 723.537L455.327 723.555C455.223 724.423 454.961 725.26 454.543 726.067C454.13 726.867 453.573 727.584 452.871 728.218C452.176 728.846 451.345 729.344 450.379 729.714C449.418 730.077 448.332 730.259 447.119 730.259C445.433 730.259 443.925 729.877 442.595 729.114C441.272 728.35 440.225 727.246 439.456 725.799C438.693 724.353 438.311 722.601 438.311 720.545C438.311 718.483 438.699 716.729 439.474 715.283C440.25 713.836 441.303 712.734 442.632 711.977C443.962 711.214 445.457 710.832 447.119 710.832C448.215 710.832 449.231 710.986 450.166 711.294C451.108 711.602 451.942 712.051 452.668 712.642C453.395 713.227 453.986 713.944 454.441 714.793C454.903 715.643 455.198 716.615 455.327 717.711ZM467.215 723.962V715.818H471.148V730H467.372V727.424H467.224C466.904 728.255 466.372 728.923 465.627 729.428C464.888 729.932 463.986 730.185 462.922 730.185C461.974 730.185 461.14 729.969 460.419 729.538C459.699 729.107 459.136 728.495 458.73 727.701C458.33 726.907 458.127 725.956 458.12 724.848V715.818H462.054V724.146C462.06 724.983 462.284 725.645 462.728 726.131C463.171 726.618 463.765 726.861 464.51 726.861C464.984 726.861 465.427 726.753 465.839 726.538C466.252 726.316 466.584 725.99 466.836 725.559C467.095 725.128 467.221 724.596 467.215 723.962ZM474.294 730V715.818H478.107V718.293H478.255C478.514 717.412 478.948 716.748 479.557 716.298C480.166 715.843 480.868 715.615 481.662 715.615C481.859 715.615 482.071 715.627 482.299 715.652C482.527 715.677 482.727 715.71 482.899 715.754V719.244C482.715 719.188 482.459 719.139 482.133 719.096C481.807 719.053 481.508 719.031 481.237 719.031C480.659 719.031 480.142 719.157 479.686 719.41C479.237 719.656 478.88 720.001 478.615 720.444C478.357 720.887 478.227 721.398 478.227 721.977V730H474.294ZM484.933 730V715.818H488.746V718.293H488.894C489.152 717.412 489.586 716.748 490.196 716.298C490.805 715.843 491.507 715.615 492.301 715.615C492.498 715.615 492.71 715.627 492.938 715.652C493.166 715.677 493.366 715.71 493.538 715.754V719.244C493.353 719.188 493.098 719.139 492.772 719.096C492.445 719.053 492.147 719.031 491.876 719.031C491.297 719.031 490.78 719.157 490.325 719.41C489.876 719.656 489.519 720.001 489.254 720.444C488.995 720.887 488.866 721.398 488.866 721.977V730H484.933ZM501.374 730.277C499.916 730.277 498.66 729.982 497.607 729.391C496.561 728.794 495.755 727.95 495.188 726.861C494.622 725.765 494.339 724.469 494.339 722.974C494.339 721.515 494.622 720.235 495.188 719.133C495.755 718.031 496.552 717.172 497.58 716.557C498.614 715.941 499.826 715.634 501.218 715.634C502.153 715.634 503.024 715.784 503.83 716.086C504.643 716.381 505.351 716.828 505.954 717.425C506.563 718.022 507.037 718.773 507.376 719.678C507.714 720.576 507.884 721.629 507.884 722.835V723.915H495.909V721.478H504.181C504.181 720.912 504.058 720.41 503.812 719.973C503.566 719.536 503.224 719.194 502.787 718.948C502.356 718.696 501.855 718.57 501.282 718.57C500.685 718.57 500.156 718.708 499.694 718.985C499.239 719.256 498.882 719.622 498.623 720.084C498.365 720.539 498.232 721.047 498.226 721.607V723.925C498.226 724.626 498.355 725.233 498.614 725.744C498.878 726.254 499.251 726.648 499.731 726.925C500.211 727.202 500.78 727.341 501.439 727.341C501.876 727.341 502.276 727.279 502.639 727.156C503.003 727.033 503.313 726.848 503.572 726.602C503.83 726.356 504.027 726.054 504.163 725.697L507.801 725.938C507.616 726.812 507.237 727.575 506.665 728.227C506.099 728.874 505.366 729.378 504.468 729.741C503.575 730.098 502.544 730.277 501.374 730.277ZM514.384 721.801V730H510.45V715.818H514.199V718.32H514.365C514.679 717.496 515.205 716.843 515.944 716.363C516.683 715.877 517.578 715.634 518.631 715.634C519.616 715.634 520.474 715.849 521.207 716.28C521.939 716.711 522.509 717.326 522.915 718.126C523.321 718.92 523.524 719.868 523.524 720.97V730H519.591V721.672C519.597 720.804 519.376 720.127 518.926 719.641C518.477 719.148 517.858 718.902 517.07 718.902C516.541 718.902 516.073 719.016 515.667 719.244C515.267 719.471 514.953 719.804 514.725 720.241C514.504 720.672 514.39 721.192 514.384 721.801ZM533.032 730.277C531.579 730.277 530.33 729.969 529.283 729.354C528.243 728.732 527.443 727.87 526.883 726.768C526.329 725.667 526.052 724.399 526.052 722.964C526.052 721.512 526.332 720.238 526.892 719.142C527.458 718.04 528.262 717.182 529.302 716.566C530.342 715.944 531.579 715.634 533.013 715.634C534.251 715.634 535.334 715.858 536.263 716.308C537.193 716.757 537.929 717.388 538.47 718.2C539.012 719.013 539.31 719.967 539.366 721.062H535.654C535.549 720.355 535.272 719.785 534.823 719.354C534.38 718.917 533.798 718.699 533.078 718.699C532.469 718.699 531.936 718.865 531.481 719.197C531.031 719.524 530.681 720.001 530.428 720.629C530.176 721.256 530.05 722.017 530.05 722.909C530.05 723.814 530.173 724.583 530.419 725.217C530.671 725.851 531.025 726.335 531.481 726.667C531.936 726.999 532.469 727.165 533.078 727.165C533.527 727.165 533.931 727.073 534.288 726.888C534.651 726.704 534.949 726.436 535.183 726.085C535.423 725.728 535.58 725.3 535.654 724.802H539.366C539.304 725.885 539.009 726.839 538.479 727.664C537.956 728.483 537.233 729.123 536.31 729.585C535.386 730.046 534.294 730.277 533.032 730.277ZM544.312 735.318C543.814 735.318 543.346 735.278 542.909 735.198C542.478 735.124 542.121 735.029 541.838 734.912L542.724 731.976C543.186 732.117 543.601 732.194 543.971 732.207C544.346 732.219 544.669 732.133 544.94 731.948C545.217 731.763 545.442 731.45 545.614 731.006L545.845 730.406L540.758 715.818H544.894L547.83 726.233H547.978L550.942 715.818H555.106L549.594 731.533C549.329 732.296 548.969 732.961 548.513 733.527C548.064 734.099 547.495 734.54 546.805 734.847C546.116 735.161 545.285 735.318 544.312 735.318ZM569.599 730.277C568.14 730.277 566.885 729.982 565.832 729.391C564.786 728.794 563.979 727.95 563.413 726.861C562.847 725.765 562.564 724.469 562.564 722.974C562.564 721.515 562.847 720.235 563.413 719.133C563.979 718.031 564.776 717.172 565.804 716.557C566.838 715.941 568.051 715.634 569.442 715.634C570.378 715.634 571.249 715.784 572.055 716.086C572.868 716.381 573.575 716.828 574.179 717.425C574.788 718.022 575.262 718.773 575.6 719.678C575.939 720.576 576.108 721.629 576.108 722.835V723.915H564.133V721.478H572.406C572.406 720.912 572.283 720.41 572.037 719.973C571.79 719.536 571.449 719.194 571.012 718.948C570.581 718.696 570.079 718.57 569.507 718.57C568.91 718.57 568.38 718.708 567.919 718.985C567.463 719.256 567.106 719.622 566.848 720.084C566.589 720.539 566.457 721.047 566.451 721.607V723.925C566.451 724.626 566.58 725.233 566.838 725.744C567.103 726.254 567.475 726.648 567.956 726.925C568.436 727.202 569.005 727.341 569.664 727.341C570.101 727.341 570.501 727.279 570.864 727.156C571.227 727.033 571.538 726.848 571.797 726.602C572.055 726.356 572.252 726.054 572.387 725.697L576.025 725.938C575.841 726.812 575.462 727.575 574.89 728.227C574.323 728.874 573.591 729.378 572.692 729.741C571.8 730.098 570.769 730.277 569.599 730.277ZM581.708 715.818L584.312 720.776L586.98 715.818H591.015L586.906 722.909L591.126 730H587.109L584.312 725.097L581.56 730H577.498L581.708 722.909L577.646 715.818H581.708ZM599.251 730.277C597.798 730.277 596.549 729.969 595.502 729.354C594.462 728.732 593.662 727.87 593.102 726.768C592.548 725.667 592.271 724.399 592.271 722.964C592.271 721.512 592.551 720.238 593.111 719.142C593.677 718.04 594.48 717.182 595.521 716.566C596.561 715.944 597.798 715.634 599.232 715.634C600.469 715.634 601.553 715.858 602.482 716.308C603.412 716.757 604.147 717.388 604.689 718.2C605.231 719.013 605.529 719.967 605.585 721.062H601.873C601.768 720.355 601.491 719.785 601.042 719.354C600.599 718.917 600.017 718.699 599.297 718.699C598.688 718.699 598.155 718.865 597.7 719.197C597.25 719.524 596.899 720.001 596.647 720.629C596.395 721.256 596.268 722.017 596.268 722.909C596.268 723.814 596.392 724.583 596.638 725.217C596.89 725.851 597.244 726.335 597.7 726.667C598.155 726.999 598.688 727.165 599.297 727.165C599.746 727.165 600.149 727.073 600.506 726.888C600.87 726.704 601.168 726.436 601.402 726.085C601.642 725.728 601.799 725.3 601.873 724.802H605.585C605.523 725.885 605.228 726.839 604.698 727.664C604.175 728.483 603.452 729.123 602.528 729.585C601.605 730.046 600.513 730.277 599.251 730.277ZM612.036 721.801V730H608.103V711.091H611.925V718.32H612.091C612.412 717.483 612.929 716.828 613.643 716.354C614.357 715.874 615.252 715.634 616.329 715.634C617.314 715.634 618.173 715.849 618.905 716.28C619.644 716.705 620.216 717.317 620.623 718.117C621.035 718.911 621.238 719.862 621.232 720.97V730H617.299V721.672C617.305 720.798 617.083 720.118 616.634 719.631C616.191 719.145 615.569 718.902 614.769 718.902C614.233 718.902 613.76 719.016 613.347 719.244C612.941 719.471 612.621 719.804 612.387 720.241C612.159 720.672 612.042 721.192 612.036 721.801ZM628.371 730.268C627.467 730.268 626.66 730.111 625.952 729.797C625.245 729.477 624.684 729.006 624.272 728.384C623.866 727.756 623.663 726.975 623.663 726.039C623.663 725.251 623.807 724.589 624.097 724.054C624.386 723.518 624.78 723.088 625.278 722.761C625.777 722.435 626.343 722.189 626.977 722.023C627.617 721.857 628.288 721.74 628.99 721.672C629.815 721.586 630.48 721.506 630.984 721.432C631.489 721.352 631.855 721.235 632.083 721.081C632.311 720.927 632.425 720.699 632.425 720.398V720.342C632.425 719.758 632.24 719.305 631.871 718.985C631.508 718.665 630.991 718.505 630.32 718.505C629.612 718.505 629.049 718.662 628.63 718.976C628.211 719.284 627.934 719.671 627.799 720.139L624.161 719.844C624.346 718.982 624.709 718.237 625.251 717.609C625.792 716.975 626.491 716.489 627.347 716.151C628.208 715.806 629.205 715.634 630.338 715.634C631.126 715.634 631.88 715.726 632.6 715.911C633.326 716.095 633.97 716.381 634.53 716.769C635.096 717.157 635.542 717.656 635.869 718.265C636.195 718.868 636.358 719.591 636.358 720.435V730H632.628V728.033H632.517C632.289 728.477 631.985 728.867 631.603 729.206C631.221 729.538 630.763 729.8 630.227 729.991C629.692 730.175 629.073 730.268 628.371 730.268ZM629.498 727.553C630.076 727.553 630.587 727.439 631.031 727.212C631.474 726.978 631.821 726.664 632.074 726.27C632.326 725.876 632.452 725.43 632.452 724.931V723.426C632.329 723.506 632.16 723.58 631.945 723.648C631.735 723.709 631.498 723.768 631.234 723.823C630.969 723.872 630.704 723.919 630.44 723.962C630.175 723.999 629.935 724.032 629.719 724.063C629.258 724.131 628.855 724.239 628.51 724.386C628.165 724.534 627.897 724.734 627.707 724.987C627.516 725.233 627.42 725.54 627.42 725.91C627.42 726.445 627.614 726.855 628.002 727.138C628.396 727.415 628.895 727.553 629.498 727.553ZM643.343 721.801V730H639.409V715.818H643.158V718.32H643.324C643.638 717.496 644.164 716.843 644.903 716.363C645.642 715.877 646.537 715.634 647.59 715.634C648.575 715.634 649.433 715.849 650.166 716.28C650.898 716.711 651.468 717.326 651.874 718.126C652.28 718.92 652.483 719.868 652.483 720.97V730H648.55V721.672C648.556 720.804 648.335 720.127 647.885 719.641C647.436 719.148 646.817 718.902 646.029 718.902C645.5 718.902 645.032 719.016 644.626 719.244C644.226 719.471 643.912 719.804 643.684 720.241C643.463 720.672 643.349 721.192 643.343 721.801ZM661.972 735.614C660.698 735.614 659.606 735.438 658.695 735.087C657.79 734.743 657.07 734.272 656.534 733.675C655.999 733.078 655.651 732.407 655.491 731.662L659.129 731.173C659.24 731.456 659.415 731.72 659.655 731.967C659.895 732.213 660.212 732.41 660.606 732.558C661.006 732.711 661.492 732.788 662.065 732.788C662.92 732.788 663.625 732.579 664.179 732.161C664.739 731.748 665.019 731.056 665.019 730.083V727.489H664.853C664.681 727.883 664.422 728.255 664.078 728.606C663.733 728.957 663.29 729.243 662.748 729.464C662.206 729.686 661.56 729.797 660.809 729.797C659.744 729.797 658.775 729.551 657.901 729.058C657.033 728.56 656.34 727.799 655.823 726.778C655.312 725.75 655.057 724.451 655.057 722.881C655.057 721.275 655.319 719.933 655.842 718.856C656.365 717.779 657.061 716.972 657.928 716.437C658.802 715.901 659.76 715.634 660.8 715.634C661.594 715.634 662.259 715.769 662.794 716.04C663.33 716.304 663.761 716.637 664.087 717.037C664.419 717.431 664.675 717.819 664.853 718.2H665.001V715.818H668.906V730.138C668.906 731.345 668.611 732.354 668.02 733.167C667.429 733.979 666.611 734.589 665.564 734.995C664.524 735.407 663.327 735.614 661.972 735.614ZM662.056 726.842C662.69 726.842 663.225 726.685 663.662 726.371C664.105 726.051 664.444 725.596 664.678 725.005C664.918 724.408 665.038 723.694 665.038 722.863C665.038 722.032 664.921 721.312 664.687 720.702C664.453 720.087 664.115 719.61 663.671 719.271C663.228 718.933 662.69 718.763 662.056 718.763C661.409 718.763 660.865 718.939 660.421 719.29C659.978 719.634 659.643 720.115 659.415 720.73C659.187 721.346 659.073 722.057 659.073 722.863C659.073 723.682 659.187 724.389 659.415 724.987C659.649 725.577 659.984 726.036 660.421 726.362C660.865 726.682 661.409 726.842 662.056 726.842ZM678.499 730.277C677.041 730.277 675.785 729.982 674.732 729.391C673.686 728.794 672.88 727.95 672.313 726.861C671.747 725.765 671.464 724.469 671.464 722.974C671.464 721.515 671.747 720.235 672.313 719.133C672.88 718.031 673.677 717.172 674.705 716.557C675.739 715.941 676.951 715.634 678.343 715.634C679.278 715.634 680.149 715.784 680.955 716.086C681.768 716.381 682.476 716.828 683.079 717.425C683.688 718.022 684.162 718.773 684.501 719.678C684.839 720.576 685.009 721.629 685.009 722.835V723.915H673.034V721.478H681.306C681.306 720.912 681.183 720.41 680.937 719.973C680.691 719.536 680.349 719.194 679.912 718.948C679.481 718.696 678.98 718.57 678.407 718.57C677.81 718.57 677.281 718.708 676.819 718.985C676.364 719.256 676.007 719.622 675.748 720.084C675.49 720.539 675.357 721.047 675.351 721.607V723.925C675.351 724.626 675.48 725.233 675.739 725.744C676.003 726.254 676.376 726.648 676.856 726.925C677.336 727.202 677.905 727.341 678.564 727.341C679.001 727.341 679.401 727.279 679.764 727.156C680.128 727.033 680.438 726.848 680.697 726.602C680.955 726.356 681.152 726.054 681.288 725.697L684.926 725.938C684.741 726.812 684.362 727.575 683.79 728.227C683.224 728.874 682.491 729.378 681.593 729.741C680.7 730.098 679.669 730.277 678.499 730.277Z" fill="white"/>
<g filter="url(#filter1_d_37_24)">
<rect x="730" y="304" width="1480" height="423" rx="10" fill="white"/>
</g>
<rect x="1488" y="430" width="85" height="35" rx="3" fill="#202020"/>
<path d="M1530.5 482L1519.67 463.25L1541.33 463.25L1530.5 482Z" fill="#202020"/>
<path d="M1508.85 454.455V439.909H1509.78V454.455H1508.85ZM1511.32 444.71C1511.28 444.252 1511.08 443.896 1510.74 443.642C1510.39 443.388 1509.93 443.261 1509.34 443.261C1508.93 443.261 1508.59 443.318 1508.32 443.432C1508.04 443.542 1507.83 443.695 1507.68 443.892C1507.54 444.089 1507.47 444.312 1507.47 444.562C1507.46 444.771 1507.5 444.953 1507.6 445.108C1507.7 445.263 1507.83 445.398 1508 445.511C1508.17 445.621 1508.37 445.718 1508.59 445.801C1508.81 445.881 1509.05 445.949 1509.31 446.006L1510.35 446.256C1510.86 446.369 1511.33 446.521 1511.75 446.71C1512.17 446.9 1512.54 447.133 1512.85 447.409C1513.16 447.686 1513.4 448.011 1513.57 448.386C1513.75 448.761 1513.84 449.191 1513.84 449.676C1513.84 450.388 1513.66 451.006 1513.3 451.528C1512.94 452.047 1512.42 452.451 1511.75 452.739C1511.08 453.023 1510.27 453.165 1509.32 453.165C1508.38 453.165 1507.57 453.021 1506.87 452.733C1506.18 452.445 1505.63 452.019 1505.24 451.455C1504.86 450.886 1504.66 450.184 1504.64 449.347H1507.02C1507.04 449.737 1507.16 450.062 1507.35 450.324C1507.55 450.581 1507.82 450.777 1508.15 450.909C1508.49 451.038 1508.87 451.102 1509.3 451.102C1509.71 451.102 1510.07 451.042 1510.38 450.92C1510.69 450.799 1510.93 450.631 1511.1 450.415C1511.27 450.199 1511.36 449.951 1511.36 449.67C1511.36 449.409 1511.28 449.189 1511.12 449.011C1510.97 448.833 1510.75 448.682 1510.45 448.557C1510.16 448.432 1509.8 448.318 1509.38 448.216L1508.11 447.898C1507.13 447.659 1506.36 447.286 1505.79 446.778C1505.22 446.271 1504.94 445.587 1504.94 444.727C1504.94 444.023 1505.13 443.407 1505.51 442.881C1505.89 442.354 1506.41 441.943 1507.08 441.648C1507.75 441.352 1508.5 441.205 1509.35 441.205C1510.22 441.205 1510.97 441.352 1511.61 441.648C1512.26 441.943 1512.77 442.354 1513.12 442.881C1513.48 443.407 1513.67 444.017 1513.68 444.71H1511.32ZM1515.89 453L1520.71 443.455V443.375H1515.09V441.364H1523.26V443.403L1518.43 453H1515.89ZM1525.6 451.409L1525.53 452.034C1525.48 452.534 1525.39 453.032 1525.25 453.528C1525.11 454.028 1524.97 454.481 1524.82 454.886C1524.67 455.292 1524.55 455.61 1524.46 455.841H1522.89C1522.95 455.617 1523.03 455.305 1523.12 454.903C1523.22 454.506 1523.32 454.059 1523.4 453.562C1523.49 453.066 1523.55 452.561 1523.57 452.045L1523.6 451.409H1525.6ZM1531.78 453.159C1531.19 453.155 1530.61 453.055 1530.05 452.858C1529.5 452.661 1529 452.341 1528.56 451.898C1528.12 451.455 1527.77 450.867 1527.52 450.136C1527.26 449.405 1527.14 448.508 1527.14 447.443C1527.14 446.466 1527.25 445.593 1527.47 444.824C1527.7 444.051 1528.01 443.396 1528.43 442.858C1528.84 442.32 1529.34 441.911 1529.92 441.631C1530.5 441.347 1531.15 441.205 1531.87 441.205C1532.65 441.205 1533.33 441.356 1533.93 441.659C1534.52 441.958 1535 442.366 1535.36 442.881C1535.72 443.396 1535.94 443.973 1536.02 444.614H1533.59C1533.5 444.208 1533.3 443.89 1532.99 443.659C1532.69 443.428 1532.32 443.312 1531.87 443.312C1531.11 443.312 1530.54 443.642 1530.14 444.301C1529.75 444.96 1529.55 445.856 1529.55 446.989H1529.62C1529.8 446.644 1530.03 446.35 1530.33 446.108C1530.63 445.862 1530.97 445.674 1531.35 445.545C1531.73 445.413 1532.13 445.347 1532.56 445.347C1533.25 445.347 1533.86 445.509 1534.4 445.835C1534.94 446.157 1535.36 446.6 1535.67 447.165C1535.98 447.729 1536.14 448.375 1536.14 449.102C1536.14 449.89 1535.95 450.591 1535.59 451.205C1535.22 451.818 1534.71 452.299 1534.06 452.648C1533.41 452.992 1532.65 453.163 1531.78 453.159ZM1531.77 451.227C1532.15 451.227 1532.49 451.136 1532.79 450.955C1533.09 450.773 1533.32 450.527 1533.49 450.216C1533.66 449.905 1533.75 449.557 1533.75 449.17C1533.75 448.784 1533.66 448.437 1533.49 448.131C1533.33 447.824 1533.1 447.58 1532.8 447.398C1532.51 447.216 1532.17 447.125 1531.79 447.125C1531.51 447.125 1531.24 447.178 1531 447.284C1530.76 447.39 1530.55 447.538 1530.37 447.727C1530.19 447.917 1530.05 448.136 1529.95 448.386C1529.85 448.633 1529.8 448.896 1529.8 449.176C1529.8 449.551 1529.88 449.894 1530.05 450.205C1530.23 450.515 1530.46 450.763 1530.76 450.949C1531.05 451.134 1531.39 451.227 1531.77 451.227ZM1542.13 453.159C1541.33 453.159 1540.61 453.011 1539.98 452.716C1539.36 452.42 1538.86 452.013 1538.49 451.494C1538.13 450.975 1537.94 450.381 1537.92 449.71H1540.31C1540.33 450.161 1540.52 450.527 1540.88 450.807C1541.23 451.087 1541.65 451.227 1542.13 451.227C1542.52 451.227 1542.86 451.142 1543.15 450.972C1543.45 450.797 1543.69 450.557 1543.85 450.25C1544.02 449.939 1544.11 449.583 1544.11 449.182C1544.11 448.773 1544.02 448.413 1543.85 448.102C1543.68 447.792 1543.44 447.549 1543.14 447.375C1542.83 447.201 1542.49 447.112 1542.1 447.108C1541.76 447.108 1541.42 447.178 1541.1 447.318C1540.78 447.458 1540.54 447.65 1540.36 447.892L1538.17 447.5L1538.72 441.364H1545.84V443.375H1540.75L1540.45 446.29H1540.52C1540.72 446.002 1541.03 445.763 1541.44 445.574C1541.86 445.384 1542.32 445.29 1542.83 445.29C1543.53 445.29 1544.16 445.455 1544.7 445.784C1545.25 446.114 1545.69 446.566 1546.01 447.142C1546.32 447.714 1546.48 448.373 1546.48 449.119C1546.48 449.903 1546.3 450.6 1545.93 451.21C1545.57 451.816 1545.06 452.294 1544.4 452.642C1543.75 452.987 1542.99 453.159 1542.13 453.159ZM1552.53 453.159C1551.66 453.159 1550.88 453.017 1550.2 452.733C1549.52 452.445 1548.99 452.053 1548.6 451.557C1548.22 451.061 1548.02 450.498 1548.02 449.869C1548.02 449.384 1548.13 448.939 1548.35 448.534C1548.58 448.125 1548.88 447.786 1549.26 447.517C1549.64 447.244 1550.07 447.07 1550.55 446.994V446.915C1549.92 446.79 1549.42 446.489 1549.03 446.011C1548.65 445.53 1548.45 444.972 1548.45 444.335C1548.45 443.733 1548.63 443.197 1548.98 442.727C1549.34 442.254 1549.82 441.883 1550.43 441.614C1551.05 441.341 1551.75 441.205 1552.53 441.205C1553.32 441.205 1554.02 441.341 1554.63 441.614C1555.25 441.886 1555.73 442.259 1556.09 442.733C1556.44 443.203 1556.62 443.737 1556.62 444.335C1556.62 444.975 1556.42 445.534 1556.03 446.011C1555.64 446.489 1555.14 446.79 1554.53 446.915V446.994C1554.99 447.07 1555.42 447.244 1555.8 447.517C1556.18 447.786 1556.48 448.125 1556.7 448.534C1556.93 448.939 1557.05 449.384 1557.05 449.869C1557.05 450.498 1556.85 451.061 1556.47 451.557C1556.08 452.053 1555.55 452.445 1554.86 452.733C1554.19 453.017 1553.41 453.159 1552.53 453.159ZM1552.53 451.352C1552.92 451.352 1553.27 451.282 1553.56 451.142C1553.85 450.998 1554.08 450.801 1554.24 450.551C1554.41 450.297 1554.49 450.006 1554.49 449.676C1554.49 449.339 1554.4 449.042 1554.23 448.784C1554.06 448.523 1553.83 448.318 1553.54 448.17C1553.25 448.019 1552.91 447.943 1552.53 447.943C1552.16 447.943 1551.82 448.019 1551.53 448.17C1551.23 448.318 1551 448.523 1550.83 448.784C1550.66 449.042 1550.58 449.339 1550.58 449.676C1550.58 450.006 1550.66 450.297 1550.82 450.551C1550.99 450.801 1551.22 450.998 1551.51 451.142C1551.81 451.282 1552.15 451.352 1552.53 451.352ZM1552.53 446.153C1552.86 446.153 1553.15 446.087 1553.4 445.955C1553.66 445.822 1553.86 445.638 1554 445.403C1554.14 445.169 1554.22 444.898 1554.22 444.591C1554.22 444.288 1554.14 444.023 1554 443.795C1553.86 443.564 1553.66 443.384 1553.41 443.256C1553.16 443.123 1552.87 443.057 1552.53 443.057C1552.2 443.057 1551.91 443.123 1551.66 443.256C1551.41 443.384 1551.21 443.564 1551.06 443.795C1550.92 444.023 1550.85 444.288 1550.85 444.591C1550.85 444.898 1550.92 445.169 1551.07 445.403C1551.21 445.638 1551.41 445.822 1551.66 445.955C1551.92 446.087 1552.21 446.153 1552.53 446.153Z" fill="white"/>
<path d="M792 643.159C791.144 643.159 790.415 642.926 789.812 642.46C789.21 641.991 788.75 641.311 788.432 640.42C788.114 639.527 787.955 638.447 787.955 637.182C787.955 635.924 788.114 634.85 788.432 633.96C788.754 633.066 789.216 632.384 789.818 631.915C790.424 631.441 791.152 631.205 792 631.205C792.848 631.205 793.574 631.441 794.176 631.915C794.782 632.384 795.244 633.066 795.562 633.96C795.884 634.85 796.045 635.924 796.045 637.182C796.045 638.447 795.886 639.527 795.568 640.42C795.25 641.311 794.79 641.991 794.188 642.46C793.585 642.926 792.856 643.159 792 643.159ZM792 641.909C792.848 641.909 793.508 641.5 793.977 640.682C794.447 639.864 794.682 638.697 794.682 637.182C794.682 636.174 794.574 635.316 794.358 634.608C794.146 633.9 793.839 633.36 793.438 632.989C793.04 632.617 792.561 632.432 792 632.432C791.159 632.432 790.502 632.847 790.028 633.676C789.555 634.502 789.318 635.67 789.318 637.182C789.318 638.189 789.424 639.045 789.636 639.75C789.848 640.455 790.153 640.991 790.551 641.358C790.953 641.725 791.436 641.909 792 641.909Z" fill="#878787"/>
<path d="M857.205 643V641.977L861.045 637.773C861.496 637.28 861.867 636.852 862.159 636.489C862.451 636.121 862.667 635.777 862.807 635.455C862.951 635.129 863.023 634.788 863.023 634.432C863.023 634.023 862.924 633.669 862.727 633.369C862.534 633.07 862.269 632.839 861.932 632.676C861.595 632.513 861.216 632.432 860.795 632.432C860.348 632.432 859.958 632.525 859.625 632.71C859.295 632.892 859.04 633.148 858.858 633.477C858.68 633.807 858.591 634.193 858.591 634.636H857.25C857.25 633.955 857.407 633.356 857.722 632.841C858.036 632.326 858.464 631.924 859.006 631.636C859.551 631.348 860.163 631.205 860.841 631.205C861.523 631.205 862.127 631.348 862.653 631.636C863.18 631.924 863.593 632.312 863.892 632.801C864.191 633.29 864.341 633.833 864.341 634.432C864.341 634.86 864.263 635.278 864.108 635.688C863.956 636.093 863.691 636.545 863.312 637.045C862.938 637.542 862.417 638.148 861.75 638.864L859.136 641.659V641.75H864.545V643H857.205ZM867.256 643L872.46 632.705V632.614H866.46V631.364H873.915V632.682L868.733 643H867.256Z" fill="#878787"/>
<path d="M935.205 643V641.977L939.045 637.773C939.496 637.28 939.867 636.852 940.159 636.489C940.451 636.121 940.667 635.777 940.807 635.455C940.951 635.129 941.023 634.788 941.023 634.432C941.023 634.023 940.924 633.669 940.727 633.369C940.534 633.07 940.269 632.839 939.932 632.676C939.595 632.513 939.216 632.432 938.795 632.432C938.348 632.432 937.958 632.525 937.625 632.71C937.295 632.892 937.04 633.148 936.858 633.477C936.68 633.807 936.591 634.193 936.591 634.636H935.25C935.25 633.955 935.407 633.356 935.722 632.841C936.036 632.326 936.464 631.924 937.006 631.636C937.551 631.348 938.163 631.205 938.841 631.205C939.523 631.205 940.127 631.348 940.653 631.636C941.18 631.924 941.593 632.312 941.892 632.801C942.191 633.29 942.341 633.833 942.341 634.432C942.341 634.86 942.263 635.278 942.108 635.688C941.956 636.093 941.691 636.545 941.312 637.045C940.938 637.542 940.417 638.148 939.75 638.864L937.136 641.659V641.75H942.545V643H935.205ZM948.619 643.159C947.839 643.159 947.15 643.021 946.551 642.744C945.956 642.464 945.492 642.08 945.159 641.591C944.826 641.098 944.661 640.538 944.665 639.909C944.661 639.417 944.758 638.962 944.955 638.545C945.152 638.125 945.42 637.775 945.761 637.494C946.106 637.21 946.491 637.03 946.915 636.955V636.886C946.358 636.742 945.915 636.43 945.585 635.949C945.256 635.464 945.093 634.913 945.097 634.295C945.093 633.705 945.242 633.176 945.545 632.71C945.848 632.244 946.265 631.877 946.795 631.608C947.33 631.339 947.938 631.205 948.619 631.205C949.294 631.205 949.896 631.339 950.426 631.608C950.956 631.877 951.373 632.244 951.676 632.71C951.983 633.176 952.138 633.705 952.142 634.295C952.138 634.913 951.97 635.464 951.636 635.949C951.307 636.43 950.869 636.742 950.324 636.886V636.955C950.744 637.03 951.123 637.21 951.46 637.494C951.797 637.775 952.066 638.125 952.267 638.545C952.468 638.962 952.57 639.417 952.574 639.909C952.57 640.538 952.4 641.098 952.062 641.591C951.729 642.08 951.265 642.464 950.67 642.744C950.08 643.021 949.396 643.159 948.619 643.159ZM948.619 641.909C949.146 641.909 949.6 641.824 949.983 641.653C950.366 641.483 950.661 641.242 950.869 640.932C951.078 640.621 951.184 640.258 951.188 639.841C951.184 639.402 951.07 639.013 950.847 638.676C950.623 638.339 950.318 638.074 949.932 637.881C949.549 637.687 949.112 637.591 948.619 637.591C948.123 637.591 947.68 637.687 947.29 637.881C946.903 638.074 946.598 638.339 946.375 638.676C946.155 639.013 946.047 639.402 946.051 639.841C946.047 640.258 946.148 640.621 946.352 640.932C946.561 641.242 946.858 641.483 947.244 641.653C947.631 641.824 948.089 641.909 948.619 641.909ZM948.619 636.386C949.036 636.386 949.405 636.303 949.727 636.136C950.053 635.97 950.309 635.737 950.494 635.438C950.68 635.138 950.775 634.788 950.778 634.386C950.775 633.992 950.682 633.65 950.5 633.358C950.318 633.062 950.066 632.835 949.744 632.676C949.422 632.513 949.047 632.432 948.619 632.432C948.184 632.432 947.803 632.513 947.477 632.676C947.152 632.835 946.9 633.062 946.722 633.358C946.544 633.65 946.456 633.992 946.46 634.386C946.456 634.788 946.545 635.138 946.727 635.438C946.913 635.737 947.169 635.97 947.494 636.136C947.82 636.303 948.195 636.386 948.619 636.386Z" fill="#878787"/>
<path d="M1014.2 643V641.977L1018.05 637.773C1018.5 637.28 1018.87 636.852 1019.16 636.489C1019.45 636.121 1019.67 635.777 1019.81 635.455C1019.95 635.129 1020.02 634.788 1020.02 634.432C1020.02 634.023 1019.92 633.669 1019.73 633.369C1019.53 633.07 1019.27 632.839 1018.93 632.676C1018.59 632.513 1018.22 632.432 1017.8 632.432C1017.35 632.432 1016.96 632.525 1016.62 632.71C1016.3 632.892 1016.04 633.148 1015.86 633.477C1015.68 633.807 1015.59 634.193 1015.59 634.636H1014.25C1014.25 633.955 1014.41 633.356 1014.72 632.841C1015.04 632.326 1015.46 631.924 1016.01 631.636C1016.55 631.348 1017.16 631.205 1017.84 631.205C1018.52 631.205 1019.13 631.348 1019.65 631.636C1020.18 631.924 1020.59 632.312 1020.89 632.801C1021.19 633.29 1021.34 633.833 1021.34 634.432C1021.34 634.86 1021.26 635.278 1021.11 635.688C1020.96 636.093 1020.69 636.545 1020.31 637.045C1019.94 637.542 1019.42 638.148 1018.75 638.864L1016.14 641.659V641.75H1021.55V643H1014.2ZM1027.6 631.205C1028.07 631.208 1028.55 631.299 1029.03 631.477C1029.51 631.655 1029.94 631.951 1030.34 632.364C1030.73 632.773 1031.05 633.331 1031.28 634.04C1031.52 634.748 1031.64 635.636 1031.64 636.705C1031.64 637.739 1031.54 638.657 1031.35 639.46C1031.15 640.259 1030.87 640.934 1030.51 641.483C1030.14 642.032 1029.7 642.449 1029.18 642.733C1028.66 643.017 1028.07 643.159 1027.41 643.159C1026.76 643.159 1026.18 643.03 1025.67 642.773C1025.16 642.511 1024.75 642.15 1024.42 641.688C1024.1 641.222 1023.89 640.682 1023.8 640.068H1025.19C1025.31 640.602 1025.56 641.044 1025.93 641.392C1026.31 641.737 1026.8 641.909 1027.41 641.909C1028.31 641.909 1029.02 641.517 1029.54 640.733C1030.06 639.949 1030.32 638.841 1030.32 637.409H1030.23C1030.02 637.727 1029.77 638.002 1029.48 638.233C1029.19 638.464 1028.86 638.642 1028.51 638.767C1028.15 638.892 1027.77 638.955 1027.37 638.955C1026.7 638.955 1026.09 638.79 1025.53 638.46C1024.98 638.127 1024.54 637.67 1024.2 637.091C1023.88 636.508 1023.71 635.841 1023.71 635.091C1023.71 634.379 1023.87 633.727 1024.19 633.136C1024.51 632.542 1024.96 632.068 1025.54 631.716C1026.12 631.364 1026.81 631.193 1027.6 631.205ZM1027.6 632.455C1027.12 632.455 1026.69 632.574 1026.31 632.812C1025.93 633.047 1025.63 633.366 1025.4 633.767C1025.18 634.165 1025.07 634.606 1025.07 635.091C1025.07 635.576 1025.18 636.017 1025.39 636.415C1025.61 636.809 1025.9 637.123 1026.27 637.358C1026.65 637.589 1027.07 637.705 1027.55 637.705C1027.91 637.705 1028.25 637.634 1028.56 637.494C1028.87 637.35 1029.14 637.155 1029.37 636.909C1029.6 636.659 1029.79 636.377 1029.92 636.062C1030.05 635.744 1030.12 635.413 1030.12 635.068C1030.12 634.614 1030.01 634.187 1029.79 633.79C1029.57 633.392 1029.27 633.07 1028.89 632.824C1028.51 632.578 1028.08 632.455 1027.6 632.455Z" fill="#878787"/>
<path d="M1097.14 643.159C1096.39 643.159 1095.72 643.03 1095.13 642.773C1094.55 642.515 1094.08 642.157 1093.74 641.699C1093.4 641.237 1093.21 640.701 1093.18 640.091H1094.61C1094.64 640.466 1094.77 640.79 1095 641.062C1095.23 641.331 1095.52 641.54 1095.89 641.688C1096.26 641.835 1096.67 641.909 1097.11 641.909C1097.61 641.909 1098.06 641.822 1098.44 641.648C1098.83 641.473 1099.13 641.231 1099.35 640.92C1099.57 640.61 1099.68 640.25 1099.68 639.841C1099.68 639.413 1099.58 639.036 1099.36 638.71C1099.15 638.381 1098.84 638.123 1098.43 637.938C1098.02 637.752 1097.52 637.659 1096.93 637.659H1096V636.409H1096.93C1097.39 636.409 1097.8 636.326 1098.15 636.159C1098.5 635.992 1098.77 635.758 1098.97 635.455C1099.17 635.152 1099.27 634.795 1099.27 634.386C1099.27 633.992 1099.19 633.65 1099.01 633.358C1098.84 633.066 1098.59 632.839 1098.27 632.676C1097.96 632.513 1097.59 632.432 1097.16 632.432C1096.76 632.432 1096.38 632.506 1096.02 632.653C1095.67 632.797 1095.38 633.008 1095.16 633.284C1094.94 633.557 1094.81 633.886 1094.8 634.273H1093.43C1093.45 633.663 1093.64 633.129 1093.98 632.67C1094.33 632.208 1094.78 631.848 1095.34 631.591C1095.9 631.333 1096.51 631.205 1097.18 631.205C1097.9 631.205 1098.52 631.35 1099.03 631.642C1099.55 631.93 1099.95 632.311 1100.22 632.784C1100.5 633.258 1100.64 633.769 1100.64 634.318C1100.64 634.973 1100.46 635.532 1100.12 635.994C1099.78 636.456 1099.31 636.777 1098.73 636.955V637.045C1099.46 637.167 1100.04 637.479 1100.45 637.983C1100.86 638.483 1101.07 639.102 1101.07 639.841C1101.07 640.473 1100.9 641.042 1100.55 641.545C1100.21 642.045 1099.74 642.439 1099.15 642.727C1098.56 643.015 1097.89 643.159 1097.14 643.159ZM1107.19 643.159C1106.33 643.159 1105.6 642.926 1105 642.46C1104.4 641.991 1103.94 641.311 1103.62 640.42C1103.3 639.527 1103.14 638.447 1103.14 637.182C1103.14 635.924 1103.3 634.85 1103.62 633.96C1103.94 633.066 1104.4 632.384 1105.01 631.915C1105.61 631.441 1106.34 631.205 1107.19 631.205C1108.04 631.205 1108.76 631.441 1109.36 631.915C1109.97 632.384 1110.43 633.066 1110.75 633.96C1111.07 634.85 1111.23 635.924 1111.23 637.182C1111.23 638.447 1111.07 639.527 1110.76 640.42C1110.44 641.311 1109.98 641.991 1109.38 642.46C1108.77 642.926 1108.04 643.159 1107.19 643.159ZM1107.19 641.909C1108.04 641.909 1108.7 641.5 1109.16 640.682C1109.63 639.864 1109.87 638.697 1109.87 637.182C1109.87 636.174 1109.76 635.316 1109.55 634.608C1109.33 633.9 1109.03 633.36 1108.62 632.989C1108.23 632.617 1107.75 632.432 1107.19 632.432C1106.35 632.432 1105.69 632.847 1105.22 633.676C1104.74 634.502 1104.51 635.67 1104.51 637.182C1104.51 638.189 1104.61 639.045 1104.82 639.75C1105.04 640.455 1105.34 640.991 1105.74 641.358C1106.14 641.725 1106.62 641.909 1107.19 641.909Z" fill="#878787"/>
<path d="M1177.14 643.159C1176.39 643.159 1175.72 643.03 1175.13 642.773C1174.55 642.515 1174.08 642.157 1173.74 641.699C1173.4 641.237 1173.21 640.701 1173.18 640.091H1174.61C1174.64 640.466 1174.77 640.79 1175 641.062C1175.23 641.331 1175.52 641.54 1175.89 641.688C1176.26 641.835 1176.67 641.909 1177.11 641.909C1177.61 641.909 1178.06 641.822 1178.44 641.648C1178.83 641.473 1179.13 641.231 1179.35 640.92C1179.57 640.61 1179.68 640.25 1179.68 639.841C1179.68 639.413 1179.58 639.036 1179.36 638.71C1179.15 638.381 1178.84 638.123 1178.43 637.938C1178.02 637.752 1177.52 637.659 1176.93 637.659H1176V636.409H1176.93C1177.39 636.409 1177.8 636.326 1178.15 636.159C1178.5 635.992 1178.77 635.758 1178.97 635.455C1179.17 635.152 1179.27 634.795 1179.27 634.386C1179.27 633.992 1179.19 633.65 1179.01 633.358C1178.84 633.066 1178.59 632.839 1178.27 632.676C1177.96 632.513 1177.59 632.432 1177.16 632.432C1176.76 632.432 1176.38 632.506 1176.02 632.653C1175.67 632.797 1175.38 633.008 1175.16 633.284C1174.94 633.557 1174.81 633.886 1174.8 634.273H1173.43C1173.45 633.663 1173.64 633.129 1173.98 632.67C1174.33 632.208 1174.78 631.848 1175.34 631.591C1175.9 631.333 1176.51 631.205 1177.18 631.205C1177.9 631.205 1178.52 631.35 1179.03 631.642C1179.55 631.93 1179.95 632.311 1180.22 632.784C1180.5 633.258 1180.64 633.769 1180.64 634.318C1180.64 634.973 1180.46 635.532 1180.12 635.994C1179.78 636.456 1179.31 636.777 1178.73 636.955V637.045C1179.46 637.167 1180.04 637.479 1180.45 637.983C1180.86 638.483 1181.07 639.102 1181.07 639.841C1181.07 640.473 1180.9 641.042 1180.55 641.545C1180.21 642.045 1179.74 642.439 1179.15 642.727C1178.56 643.015 1177.89 643.159 1177.14 643.159ZM1187.48 631.364V643H1186.07V632.841H1186.01L1183.16 634.727V633.295L1186.07 631.364H1187.48Z" fill="#878787"/>
<path d="M1254.3 631.364V643H1252.89V632.841H1252.82L1249.98 634.727V633.295L1252.89 631.364H1254.3Z" fill="#878787"/>
<path d="M1317.2 643V641.977L1321.05 637.773C1321.5 637.28 1321.87 636.852 1322.16 636.489C1322.45 636.121 1322.67 635.777 1322.81 635.455C1322.95 635.129 1323.02 634.788 1323.02 634.432C1323.02 634.023 1322.92 633.669 1322.73 633.369C1322.53 633.07 1322.27 632.839 1321.93 632.676C1321.59 632.513 1321.22 632.432 1320.8 632.432C1320.35 632.432 1319.96 632.525 1319.62 632.71C1319.3 632.892 1319.04 633.148 1318.86 633.477C1318.68 633.807 1318.59 634.193 1318.59 634.636H1317.25C1317.25 633.955 1317.41 633.356 1317.72 632.841C1318.04 632.326 1318.46 631.924 1319.01 631.636C1319.55 631.348 1320.16 631.205 1320.84 631.205C1321.52 631.205 1322.13 631.348 1322.65 631.636C1323.18 631.924 1323.59 632.312 1323.89 632.801C1324.19 633.29 1324.34 633.833 1324.34 634.432C1324.34 634.86 1324.26 635.278 1324.11 635.688C1323.96 636.093 1323.69 636.545 1323.31 637.045C1322.94 637.542 1322.42 638.148 1321.75 638.864L1319.14 641.659V641.75H1324.55V643H1317.2Z" fill="#878787"/>
<path d="M1390.14 643.159C1389.39 643.159 1388.72 643.03 1388.13 642.773C1387.55 642.515 1387.08 642.157 1386.74 641.699C1386.4 641.237 1386.21 640.701 1386.18 640.091H1387.61C1387.64 640.466 1387.77 640.79 1388 641.062C1388.23 641.331 1388.52 641.54 1388.89 641.688C1389.26 641.835 1389.67 641.909 1390.11 641.909C1390.61 641.909 1391.06 641.822 1391.44 641.648C1391.83 641.473 1392.13 641.231 1392.35 640.92C1392.57 640.61 1392.68 640.25 1392.68 639.841C1392.68 639.413 1392.58 639.036 1392.36 638.71C1392.15 638.381 1391.84 638.123 1391.43 637.938C1391.02 637.752 1390.52 637.659 1389.93 637.659H1389V636.409H1389.93C1390.39 636.409 1390.8 636.326 1391.15 636.159C1391.5 635.992 1391.77 635.758 1391.97 635.455C1392.17 635.152 1392.27 634.795 1392.27 634.386C1392.27 633.992 1392.19 633.65 1392.01 633.358C1391.84 633.066 1391.59 632.839 1391.27 632.676C1390.96 632.513 1390.59 632.432 1390.16 632.432C1389.76 632.432 1389.38 632.506 1389.02 632.653C1388.67 632.797 1388.38 633.008 1388.16 633.284C1387.94 633.557 1387.81 633.886 1387.8 634.273H1386.43C1386.45 633.663 1386.64 633.129 1386.98 632.67C1387.33 632.208 1387.78 631.848 1388.34 631.591C1388.9 631.333 1389.51 631.205 1390.18 631.205C1390.9 631.205 1391.52 631.35 1392.03 631.642C1392.55 631.93 1392.95 632.311 1393.22 632.784C1393.5 633.258 1393.64 633.769 1393.64 634.318C1393.64 634.973 1393.46 635.532 1393.12 635.994C1392.78 636.456 1392.31 636.777 1391.73 636.955V637.045C1392.46 637.167 1393.04 637.479 1393.45 637.983C1393.86 638.483 1394.07 639.102 1394.07 639.841C1394.07 640.473 1393.9 641.042 1393.55 641.545C1393.21 642.045 1392.74 642.439 1392.15 642.727C1391.56 643.015 1390.89 643.159 1390.14 643.159Z" fill="#878787"/>
<path d="M1455.93 640.614V639.455L1461.05 631.364H1461.89V633.159H1461.32L1457.45 639.273V639.364H1464.34V640.614H1455.93ZM1461.41 643V640.261V639.722V631.364H1462.75V643H1461.41Z" fill="#878787"/>
<path d="M1529.84 643.159C1529.17 643.159 1528.57 643.027 1528.04 642.761C1527.51 642.496 1527.08 642.133 1526.76 641.67C1526.43 641.208 1526.26 640.682 1526.23 640.091H1527.59C1527.64 640.617 1527.88 641.053 1528.31 641.398C1528.73 641.739 1529.25 641.909 1529.84 641.909C1530.32 641.909 1530.74 641.797 1531.11 641.574C1531.49 641.35 1531.78 641.044 1531.99 640.653C1532.21 640.259 1532.32 639.814 1532.32 639.318C1532.32 638.811 1532.21 638.358 1531.98 637.96C1531.76 637.559 1531.46 637.242 1531.07 637.011C1530.69 636.78 1530.25 636.663 1529.75 636.659C1529.39 636.655 1529.03 636.71 1528.65 636.824C1528.28 636.934 1527.97 637.076 1527.73 637.25L1526.41 637.091L1527.11 631.364H1533.16V632.614H1528.3L1527.89 636.045H1527.95C1528.19 635.856 1528.49 635.699 1528.85 635.574C1529.21 635.449 1529.59 635.386 1529.98 635.386C1530.69 635.386 1531.32 635.557 1531.88 635.898C1532.44 636.235 1532.88 636.697 1533.2 637.284C1533.52 637.871 1533.68 638.542 1533.68 639.295C1533.68 640.038 1533.52 640.701 1533.18 641.284C1532.85 641.864 1532.4 642.322 1531.82 642.659C1531.24 642.992 1530.58 643.159 1529.84 643.159Z" fill="#878787"/>
<path d="M1599.07 643.159C1598.59 643.152 1598.11 643.061 1597.64 642.886C1597.16 642.712 1596.72 642.419 1596.33 642.006C1595.94 641.589 1595.62 641.027 1595.38 640.318C1595.14 639.606 1595.02 638.712 1595.02 637.636C1595.02 636.606 1595.12 635.693 1595.31 634.898C1595.51 634.098 1595.79 633.426 1596.15 632.881C1596.52 632.331 1596.96 631.915 1597.48 631.631C1598.01 631.347 1598.59 631.205 1599.25 631.205C1599.9 631.205 1600.48 631.335 1600.99 631.597C1601.5 631.854 1601.92 632.214 1602.24 632.676C1602.56 633.138 1602.77 633.67 1602.86 634.273H1601.48C1601.35 633.75 1601.1 633.316 1600.73 632.972C1600.36 632.627 1599.86 632.455 1599.25 632.455C1598.35 632.455 1597.64 632.847 1597.12 633.631C1596.6 634.415 1596.34 635.515 1596.34 636.932H1596.43C1596.64 636.61 1596.9 636.335 1597.19 636.108C1597.48 635.877 1597.81 635.699 1598.16 635.574C1598.52 635.449 1598.9 635.386 1599.3 635.386C1599.96 635.386 1600.57 635.553 1601.12 635.886C1601.68 636.216 1602.12 636.672 1602.45 637.256C1602.79 637.835 1602.95 638.5 1602.95 639.25C1602.95 639.97 1602.79 640.629 1602.47 641.227C1602.15 641.822 1601.7 642.295 1601.11 642.648C1600.53 642.996 1599.85 643.167 1599.07 643.159ZM1599.07 641.909C1599.55 641.909 1599.97 641.79 1600.35 641.551C1600.73 641.312 1601.04 640.992 1601.26 640.591C1601.48 640.189 1601.59 639.742 1601.59 639.25C1601.59 638.769 1601.48 638.331 1601.27 637.938C1601.05 637.54 1600.76 637.223 1600.39 636.989C1600.02 636.754 1599.59 636.636 1599.11 636.636C1598.75 636.636 1598.42 636.708 1598.11 636.852C1597.8 636.992 1597.52 637.186 1597.29 637.432C1597.06 637.678 1596.88 637.96 1596.74 638.278C1596.61 638.593 1596.55 638.924 1596.55 639.273C1596.55 639.735 1596.65 640.167 1596.87 640.568C1597.09 640.97 1597.39 641.294 1597.77 641.54C1598.15 641.786 1598.58 641.909 1599.07 641.909Z" fill="#878787"/>
<path d="M1664.57 643L1669.77 632.705V632.614H1663.77V631.364H1671.23V632.682L1666.05 643H1664.57Z" fill="#878787"/>
<path d="M1736.93 643.159C1736.15 643.159 1735.46 643.021 1734.86 642.744C1734.27 642.464 1733.8 642.08 1733.47 641.591C1733.14 641.098 1732.97 640.538 1732.98 639.909C1732.97 639.417 1733.07 638.962 1733.27 638.545C1733.46 638.125 1733.73 637.775 1734.07 637.494C1734.42 637.21 1734.8 637.03 1735.23 636.955V636.886C1734.67 636.742 1734.23 636.43 1733.9 635.949C1733.57 635.464 1733.41 634.913 1733.41 634.295C1733.41 633.705 1733.55 633.176 1733.86 632.71C1734.16 632.244 1734.58 631.877 1735.11 631.608C1735.64 631.339 1736.25 631.205 1736.93 631.205C1737.61 631.205 1738.21 631.339 1738.74 631.608C1739.27 631.877 1739.69 632.244 1739.99 632.71C1740.3 633.176 1740.45 633.705 1740.45 634.295C1740.45 634.913 1740.28 635.464 1739.95 635.949C1739.62 636.43 1739.18 636.742 1738.64 636.886V636.955C1739.06 637.03 1739.44 637.21 1739.77 637.494C1740.11 637.775 1740.38 638.125 1740.58 638.545C1740.78 638.962 1740.88 639.417 1740.89 639.909C1740.88 640.538 1740.71 641.098 1740.38 641.591C1740.04 642.08 1739.58 642.464 1738.98 642.744C1738.39 643.021 1737.71 643.159 1736.93 643.159ZM1736.93 641.909C1737.46 641.909 1737.91 641.824 1738.3 641.653C1738.68 641.483 1738.97 641.242 1739.18 640.932C1739.39 640.621 1739.5 640.258 1739.5 639.841C1739.5 639.402 1739.38 639.013 1739.16 638.676C1738.94 638.339 1738.63 638.074 1738.24 637.881C1737.86 637.687 1737.42 637.591 1736.93 637.591C1736.44 637.591 1735.99 637.687 1735.6 637.881C1735.22 638.074 1734.91 638.339 1734.69 638.676C1734.47 639.013 1734.36 639.402 1734.36 639.841C1734.36 640.258 1734.46 640.621 1734.66 640.932C1734.87 641.242 1735.17 641.483 1735.56 641.653C1735.94 641.824 1736.4 641.909 1736.93 641.909ZM1736.93 636.386C1737.35 636.386 1737.72 636.303 1738.04 636.136C1738.37 635.97 1738.62 635.737 1738.81 635.438C1738.99 635.138 1739.09 634.788 1739.09 634.386C1739.09 633.992 1738.99 633.65 1738.81 633.358C1738.63 633.062 1738.38 632.835 1738.06 632.676C1737.73 632.513 1737.36 632.432 1736.93 632.432C1736.5 632.432 1736.12 632.513 1735.79 632.676C1735.46 632.835 1735.21 633.062 1735.03 633.358C1734.86 633.65 1734.77 633.992 1734.77 634.386C1734.77 634.788 1734.86 635.138 1735.04 635.438C1735.23 635.737 1735.48 635.97 1735.81 636.136C1736.13 636.303 1736.51 636.386 1736.93 636.386Z" fill="#878787"/>
<path d="M1805.91 631.205C1806.39 631.208 1806.86 631.299 1807.34 631.477C1807.82 631.655 1808.25 631.951 1808.65 632.364C1809.04 632.773 1809.36 633.331 1809.6 634.04C1809.84 634.748 1809.95 635.636 1809.95 636.705C1809.95 637.739 1809.86 638.657 1809.66 639.46C1809.47 640.259 1809.19 640.934 1808.82 641.483C1808.45 642.032 1808.01 642.449 1807.49 642.733C1806.97 643.017 1806.38 643.159 1805.73 643.159C1805.08 643.159 1804.49 643.03 1803.98 642.773C1803.48 642.511 1803.06 642.15 1802.73 641.688C1802.41 641.222 1802.2 640.682 1802.11 640.068H1803.5C1803.62 640.602 1803.87 641.044 1804.24 641.392C1804.62 641.737 1805.11 641.909 1805.73 641.909C1806.63 641.909 1807.33 641.517 1807.85 640.733C1808.38 639.949 1808.64 638.841 1808.64 637.409H1808.55C1808.33 637.727 1808.08 638.002 1807.79 638.233C1807.5 638.464 1807.17 638.642 1806.82 638.767C1806.46 638.892 1806.08 638.955 1805.68 638.955C1805.02 638.955 1804.4 638.79 1803.85 638.46C1803.29 638.127 1802.85 637.67 1802.52 637.091C1802.19 636.508 1802.02 635.841 1802.02 635.091C1802.02 634.379 1802.18 633.727 1802.5 633.136C1802.82 632.542 1803.27 632.068 1803.85 631.716C1804.44 631.364 1805.12 631.193 1805.91 631.205ZM1805.91 632.455C1805.43 632.455 1805 632.574 1804.62 632.812C1804.24 633.047 1803.94 633.366 1803.72 633.767C1803.5 634.165 1803.39 634.606 1803.39 635.091C1803.39 635.576 1803.49 636.017 1803.7 636.415C1803.92 636.809 1804.21 637.123 1804.59 637.358C1804.96 637.589 1805.39 637.705 1805.86 637.705C1806.22 637.705 1806.56 637.634 1806.87 637.494C1807.18 637.35 1807.45 637.155 1807.68 636.909C1807.92 636.659 1808.1 636.377 1808.23 636.062C1808.37 635.744 1808.43 635.413 1808.43 635.068C1808.43 634.614 1808.32 634.187 1808.1 633.79C1807.89 633.392 1807.59 633.07 1807.2 632.824C1806.83 632.578 1806.39 632.455 1805.91 632.455Z" fill="#878787"/>
<path d="M1875.3 631.364V643H1873.89V632.841H1873.82L1870.98 634.727V633.295L1873.89 631.364H1875.3ZM1882.44 643.159C1881.58 643.159 1880.85 642.926 1880.25 642.46C1879.65 641.991 1879.19 641.311 1878.87 640.42C1878.55 639.527 1878.39 638.447 1878.39 637.182C1878.39 635.924 1878.55 634.85 1878.87 633.96C1879.19 633.066 1879.65 632.384 1880.26 631.915C1880.86 631.441 1881.59 631.205 1882.44 631.205C1883.29 631.205 1884.01 631.441 1884.61 631.915C1885.22 632.384 1885.68 633.066 1886 633.96C1886.32 634.85 1886.48 635.924 1886.48 637.182C1886.48 638.447 1886.32 639.527 1886.01 640.42C1885.69 641.311 1885.23 641.991 1884.62 642.46C1884.02 642.926 1883.29 643.159 1882.44 643.159ZM1882.44 641.909C1883.29 641.909 1883.95 641.5 1884.41 640.682C1884.88 639.864 1885.12 638.697 1885.12 637.182C1885.12 636.174 1885.01 635.316 1884.8 634.608C1884.58 633.9 1884.28 633.36 1883.88 632.989C1883.48 632.617 1883 632.432 1882.44 632.432C1881.6 632.432 1880.94 632.847 1880.47 633.676C1879.99 634.502 1879.76 635.67 1879.76 637.182C1879.76 638.189 1879.86 639.045 1880.07 639.75C1880.29 640.455 1880.59 640.991 1880.99 641.358C1881.39 641.725 1881.87 641.909 1882.44 641.909Z" fill="#878787"/>
<path d="M1952.3 631.364V643H1950.89V632.841H1950.82L1947.98 634.727V633.295L1950.89 631.364H1952.3ZM1959.73 631.364V643H1958.32V632.841H1958.26L1955.41 634.727V633.295L1958.32 631.364H1959.73Z" fill="#878787"/>
<path d="M2026.3 631.364V643H2024.89V632.841H2024.82L2021.98 634.727V633.295L2024.89 631.364H2026.3ZM2029.64 643V641.977L2033.48 637.773C2033.93 637.28 2034.3 636.852 2034.6 636.489C2034.89 636.121 2035.1 635.777 2035.24 635.455C2035.39 635.129 2035.46 634.788 2035.46 634.432C2035.46 634.023 2035.36 633.669 2035.16 633.369C2034.97 633.07 2034.71 632.839 2034.37 632.676C2034.03 632.513 2033.65 632.432 2033.23 632.432C2032.79 632.432 2032.4 632.525 2032.06 632.71C2031.73 632.892 2031.48 633.148 2031.3 633.477C2031.12 633.807 2031.03 634.193 2031.03 634.636H2029.69C2029.69 633.955 2029.84 633.356 2030.16 632.841C2030.47 632.326 2030.9 631.924 2031.44 631.636C2031.99 631.348 2032.6 631.205 2033.28 631.205C2033.96 631.205 2034.56 631.348 2035.09 631.636C2035.62 631.924 2036.03 632.312 2036.33 632.801C2036.63 633.29 2036.78 633.833 2036.78 634.432C2036.78 634.86 2036.7 635.278 2036.55 635.688C2036.39 636.093 2036.13 636.545 2035.75 637.045C2035.38 637.542 2034.85 638.148 2034.19 638.864L2031.57 641.659V641.75H2036.98V643H2029.64Z" fill="#878787"/>
<path d="M2103.3 631.364V643H2101.89V632.841H2101.82L2098.98 634.727V633.295L2101.89 631.364H2103.3ZM2110.57 643.159C2109.82 643.159 2109.16 643.03 2108.57 642.773C2107.98 642.515 2107.52 642.157 2107.18 641.699C2106.84 641.237 2106.65 640.701 2106.62 640.091H2108.05C2108.08 640.466 2108.21 640.79 2108.44 641.062C2108.66 641.331 2108.96 641.54 2109.33 641.688C2109.7 641.835 2110.1 641.909 2110.55 641.909C2111.05 641.909 2111.49 641.822 2111.88 641.648C2112.27 641.473 2112.57 641.231 2112.79 640.92C2113.01 640.61 2113.12 640.25 2113.12 639.841C2113.12 639.413 2113.01 639.036 2112.8 638.71C2112.59 638.381 2112.28 638.123 2111.87 637.938C2111.46 637.752 2110.96 637.659 2110.37 637.659H2109.44V636.409H2110.37C2110.83 636.409 2111.24 636.326 2111.59 636.159C2111.94 635.992 2112.21 635.758 2112.41 635.455C2112.61 635.152 2112.71 634.795 2112.71 634.386C2112.71 633.992 2112.62 633.65 2112.45 633.358C2112.27 633.066 2112.03 632.839 2111.71 632.676C2111.4 632.513 2111.02 632.432 2110.6 632.432C2110.2 632.432 2109.82 632.506 2109.46 632.653C2109.11 632.797 2108.82 633.008 2108.6 633.284C2108.37 633.557 2108.25 633.886 2108.23 634.273H2106.87C2106.89 633.663 2107.08 633.129 2107.42 632.67C2107.77 632.208 2108.22 631.848 2108.77 631.591C2109.33 631.333 2109.95 631.205 2110.62 631.205C2111.34 631.205 2111.96 631.35 2112.47 631.642C2112.99 631.93 2113.38 632.311 2113.66 632.784C2113.94 633.258 2114.07 633.769 2114.07 634.318C2114.07 634.973 2113.9 635.532 2113.56 635.994C2113.22 636.456 2112.75 636.777 2112.16 636.955V637.045C2112.9 637.167 2113.47 637.479 2113.89 637.983C2114.3 638.483 2114.51 639.102 2114.51 639.841C2114.51 640.473 2114.33 641.042 2113.99 641.545C2113.65 642.045 2113.18 642.439 2112.59 642.727C2112 643.015 2111.33 643.159 2110.57 643.159Z" fill="#878787"/>
<path d="M2149.2 643.091C2148.92 643.091 2148.68 642.991 2148.48 642.79C2148.28 642.589 2148.18 642.348 2148.18 642.068C2148.18 641.788 2148.28 641.547 2148.48 641.347C2148.68 641.146 2148.92 641.045 2149.2 641.045C2149.48 641.045 2149.73 641.146 2149.93 641.347C2150.13 641.547 2150.23 641.788 2150.23 642.068C2150.23 642.254 2150.18 642.424 2150.09 642.58C2149.99 642.735 2149.87 642.86 2149.72 642.955C2149.56 643.045 2149.39 643.091 2149.2 643.091ZM2153.61 643.091C2153.33 643.091 2153.09 642.991 2152.89 642.79C2152.69 642.589 2152.59 642.348 2152.59 642.068C2152.59 641.788 2152.69 641.547 2152.89 641.347C2153.09 641.146 2153.33 641.045 2153.61 641.045C2153.89 641.045 2154.13 641.146 2154.33 641.347C2154.53 641.547 2154.63 641.788 2154.63 642.068C2154.63 642.254 2154.59 642.424 2154.49 642.58C2154.4 642.735 2154.28 642.86 2154.12 642.955C2153.97 643.045 2153.8 643.091 2153.61 643.091ZM2158.02 643.091C2157.74 643.091 2157.5 642.991 2157.3 642.79C2157.09 642.589 2156.99 642.348 2156.99 642.068C2156.99 641.788 2157.09 641.547 2157.3 641.347C2157.5 641.146 2157.74 641.045 2158.02 641.045C2158.3 641.045 2158.54 641.146 2158.74 641.347C2158.94 641.547 2159.04 641.788 2159.04 642.068C2159.04 642.254 2158.99 642.424 2158.9 642.58C2158.81 642.735 2158.68 642.86 2158.53 642.955C2158.38 643.045 2158.21 643.091 2158.02 643.091Z" fill="#878787"/>
<path d="M791.841 588.159C791.174 588.159 790.574 588.027 790.04 587.761C789.506 587.496 789.078 587.133 788.756 586.67C788.434 586.208 788.258 585.682 788.227 585.091H789.591C789.644 585.617 789.883 586.053 790.307 586.398C790.735 586.739 791.246 586.909 791.841 586.909C792.318 586.909 792.742 586.797 793.114 586.574C793.489 586.35 793.782 586.044 793.994 585.653C794.21 585.259 794.318 584.814 794.318 584.318C794.318 583.811 794.206 583.358 793.983 582.96C793.763 582.559 793.46 582.242 793.074 582.011C792.688 581.78 792.246 581.663 791.75 581.659C791.394 581.655 791.028 581.71 790.653 581.824C790.278 581.934 789.97 582.076 789.727 582.25L788.409 582.091L789.114 576.364H795.159V577.614H790.295L789.886 581.045H789.955C790.193 580.856 790.492 580.699 790.852 580.574C791.212 580.449 791.587 580.386 791.977 580.386C792.689 580.386 793.324 580.557 793.881 580.898C794.441 581.235 794.881 581.697 795.199 582.284C795.521 582.871 795.682 583.542 795.682 584.295C795.682 585.038 795.515 585.701 795.182 586.284C794.852 586.864 794.398 587.322 793.818 587.659C793.239 587.992 792.58 588.159 791.841 588.159ZM799.212 584.818L799.189 583.159H799.462L803.28 579.273H804.939L800.871 583.386H800.757L799.212 584.818ZM797.962 588V576.364H799.303V588H797.962ZM803.507 588L800.098 583.682L801.053 582.75L805.212 588H803.507Z" fill="#878787"/>
<path d="M792.295 521.364V533H790.886V522.841H790.818L787.977 524.727V523.295L790.886 521.364H792.295ZM799.438 533.159C798.581 533.159 797.852 532.926 797.25 532.46C796.648 531.991 796.188 531.311 795.869 530.42C795.551 529.527 795.392 528.447 795.392 527.182C795.392 525.924 795.551 524.85 795.869 523.96C796.191 523.066 796.653 522.384 797.256 521.915C797.862 521.441 798.589 521.205 799.438 521.205C800.286 521.205 801.011 521.441 801.614 521.915C802.22 522.384 802.682 523.066 803 523.96C803.322 524.85 803.483 525.924 803.483 527.182C803.483 528.447 803.324 529.527 803.006 530.42C802.688 531.311 802.227 531.991 801.625 532.46C801.023 532.926 800.294 533.159 799.438 533.159ZM799.438 531.909C800.286 531.909 800.945 531.5 801.415 530.682C801.884 529.864 802.119 528.697 802.119 527.182C802.119 526.174 802.011 525.316 801.795 524.608C801.583 523.9 801.277 523.36 800.875 522.989C800.477 522.617 799.998 522.432 799.438 522.432C798.597 522.432 797.939 522.847 797.466 523.676C796.992 524.502 796.756 525.67 796.756 527.182C796.756 528.189 796.862 529.045 797.074 529.75C797.286 530.455 797.591 530.991 797.989 531.358C798.39 531.725 798.873 531.909 799.438 531.909ZM806.915 529.818L806.892 528.159H807.165L810.983 524.273H812.642L808.574 528.386H808.46L806.915 529.818ZM805.665 533V521.364H807.006V533H805.665ZM811.21 533L807.801 528.682L808.756 527.75L812.915 533H811.21Z" fill="#878787"/>
<path d="M792.295 466.364V478H790.886V467.841H790.818L787.977 469.727V468.295L790.886 466.364H792.295ZM799.278 478.159C798.612 478.159 798.011 478.027 797.477 477.761C796.943 477.496 796.515 477.133 796.193 476.67C795.871 476.208 795.695 475.682 795.665 475.091H797.028C797.081 475.617 797.32 476.053 797.744 476.398C798.172 476.739 798.684 476.909 799.278 476.909C799.756 476.909 800.18 476.797 800.551 476.574C800.926 476.35 801.22 476.044 801.432 475.653C801.648 475.259 801.756 474.814 801.756 474.318C801.756 473.811 801.644 473.358 801.42 472.96C801.201 472.559 800.898 472.242 800.511 472.011C800.125 471.78 799.684 471.663 799.188 471.659C798.831 471.655 798.466 471.71 798.091 471.824C797.716 471.934 797.407 472.076 797.165 472.25L795.847 472.091L796.551 466.364H802.597V467.614H797.733L797.324 471.045H797.392C797.631 470.856 797.93 470.699 798.29 470.574C798.65 470.449 799.025 470.386 799.415 470.386C800.127 470.386 800.761 470.557 801.318 470.898C801.879 471.235 802.318 471.697 802.636 472.284C802.958 472.871 803.119 473.542 803.119 474.295C803.119 475.038 802.953 475.701 802.619 476.284C802.29 476.864 801.835 477.322 801.256 477.659C800.676 477.992 800.017 478.159 799.278 478.159ZM806.649 474.818L806.626 473.159H806.899L810.717 469.273H812.376L808.308 473.386H808.195L806.649 474.818ZM805.399 478V466.364H806.74V478H805.399ZM810.945 478L807.536 473.682L808.49 472.75L812.649 478H810.945Z" fill="#878787"/>
<path d="M789.205 423V421.977L793.045 417.773C793.496 417.28 793.867 416.852 794.159 416.489C794.451 416.121 794.667 415.777 794.807 415.455C794.951 415.129 795.023 414.788 795.023 414.432C795.023 414.023 794.924 413.669 794.727 413.369C794.534 413.07 794.269 412.839 793.932 412.676C793.595 412.513 793.216 412.432 792.795 412.432C792.348 412.432 791.958 412.525 791.625 412.71C791.295 412.892 791.04 413.148 790.858 413.477C790.68 413.807 790.591 414.193 790.591 414.636H789.25C789.25 413.955 789.407 413.356 789.722 412.841C790.036 412.326 790.464 411.924 791.006 411.636C791.551 411.348 792.163 411.205 792.841 411.205C793.523 411.205 794.127 411.348 794.653 411.636C795.18 411.924 795.593 412.312 795.892 412.801C796.191 413.29 796.341 413.833 796.341 414.432C796.341 414.86 796.263 415.278 796.108 415.688C795.956 416.093 795.691 416.545 795.312 417.045C794.938 417.542 794.417 418.148 793.75 418.864L791.136 421.659V421.75H796.545V423H789.205ZM802.688 423.159C801.831 423.159 801.102 422.926 800.5 422.46C799.898 421.991 799.438 421.311 799.119 420.42C798.801 419.527 798.642 418.447 798.642 417.182C798.642 415.924 798.801 414.85 799.119 413.96C799.441 413.066 799.903 412.384 800.506 411.915C801.112 411.441 801.839 411.205 802.688 411.205C803.536 411.205 804.261 411.441 804.864 411.915C805.47 412.384 805.932 413.066 806.25 413.96C806.572 414.85 806.733 415.924 806.733 417.182C806.733 418.447 806.574 419.527 806.256 420.42C805.938 421.311 805.477 421.991 804.875 422.46C804.273 422.926 803.544 423.159 802.688 423.159ZM802.688 421.909C803.536 421.909 804.195 421.5 804.665 420.682C805.134 419.864 805.369 418.697 805.369 417.182C805.369 416.174 805.261 415.316 805.045 414.608C804.833 413.9 804.527 413.36 804.125 412.989C803.727 412.617 803.248 412.432 802.688 412.432C801.847 412.432 801.189 412.847 800.716 413.676C800.242 414.502 800.006 415.67 800.006 417.182C800.006 418.189 800.112 419.045 800.324 419.75C800.536 420.455 800.841 420.991 801.239 421.358C801.64 421.725 802.123 421.909 802.688 421.909ZM810.165 419.818L810.142 418.159H810.415L814.233 414.273H815.892L811.824 418.386H811.71L810.165 419.818ZM808.915 423V411.364H810.256V423H808.915ZM814.46 423L811.051 418.682L812.006 417.75L816.165 423H814.46Z" fill="#878787"/>
<path d="M855 504.138L1012.71 531.28L1154.17 478L1345.41 531.28L1496.83 486.545L1676.02 551.386L1875.65 478L2018.68 573L2135 494.085" stroke="#40FF8E" stroke-width="3"/>
<path d="M2156 537.862L1995.7 510.72L1851.92 564L1657.54 510.72L1503.64 555.455L1321.51 490.614L1118.61 564L973.224 469L855 547.915" stroke="#777777" stroke-width="3"/>
<path d="M793.643 345.091H798.574L803.781 357.795H804.003L809.21 345.091H814.141V364H810.263V351.692H810.106L805.212 363.908H802.572L797.678 351.646H797.521V364H793.643V345.091ZM823.768 364.277C822.334 364.277 821.094 363.972 820.047 363.363C819.007 362.747 818.204 361.892 817.638 360.796C817.071 359.694 816.788 358.417 816.788 356.964C816.788 355.5 817.071 354.219 817.638 353.124C818.204 352.022 819.007 351.166 820.047 350.557C821.094 349.941 822.334 349.634 823.768 349.634C825.202 349.634 826.44 349.941 827.48 350.557C828.526 351.166 829.333 352.022 829.899 353.124C830.465 354.219 830.748 355.5 830.748 356.964C830.748 358.417 830.465 359.694 829.899 360.796C829.333 361.892 828.526 362.747 827.48 363.363C826.44 363.972 825.202 364.277 823.768 364.277ZM823.787 361.23C824.439 361.23 824.984 361.045 825.421 360.676C825.858 360.301 826.187 359.79 826.409 359.143C826.637 358.497 826.751 357.762 826.751 356.937C826.751 356.112 826.637 355.376 826.409 354.73C826.187 354.084 825.858 353.573 825.421 353.197C824.984 352.822 824.439 352.634 823.787 352.634C823.128 352.634 822.574 352.822 822.125 353.197C821.682 353.573 821.346 354.084 821.118 354.73C820.897 355.376 820.786 356.112 820.786 356.937C820.786 357.762 820.897 358.497 821.118 359.143C821.346 359.79 821.682 360.301 822.125 360.676C822.574 361.045 823.128 361.23 823.787 361.23ZM837.239 355.801V364H833.306V349.818H837.055V352.32H837.221C837.535 351.496 838.061 350.843 838.8 350.363C839.538 349.877 840.434 349.634 841.486 349.634C842.471 349.634 843.33 349.849 844.062 350.28C844.795 350.711 845.364 351.326 845.77 352.126C846.177 352.92 846.38 353.868 846.38 354.97V364H842.447V355.672C842.453 354.804 842.231 354.127 841.782 353.641C841.332 353.148 840.714 352.902 839.926 352.902C839.397 352.902 838.929 353.016 838.523 353.244C838.122 353.471 837.809 353.804 837.581 354.241C837.359 354.672 837.245 355.192 837.239 355.801ZM855.943 364.277C854.484 364.277 853.228 363.982 852.176 363.391C851.129 362.794 850.323 361.95 849.757 360.861C849.19 359.765 848.907 358.469 848.907 356.974C848.907 355.515 849.19 354.235 849.757 353.133C850.323 352.031 851.12 351.172 852.148 350.557C853.182 349.941 854.395 349.634 855.786 349.634C856.721 349.634 857.592 349.784 858.399 350.086C859.211 350.381 859.919 350.828 860.522 351.425C861.132 352.022 861.606 352.773 861.944 353.678C862.283 354.576 862.452 355.629 862.452 356.835V357.915H850.477V355.478H858.75C858.75 354.912 858.627 354.41 858.38 353.973C858.134 353.536 857.792 353.194 857.355 352.948C856.925 352.696 856.423 352.57 855.85 352.57C855.253 352.57 854.724 352.708 854.262 352.985C853.807 353.256 853.45 353.622 853.191 354.084C852.933 354.539 852.801 355.047 852.794 355.607V357.925C852.794 358.626 852.924 359.233 853.182 359.744C853.447 360.254 853.819 360.648 854.299 360.925C854.779 361.202 855.349 361.341 856.007 361.341C856.444 361.341 856.845 361.279 857.208 361.156C857.571 361.033 857.882 360.848 858.14 360.602C858.399 360.356 858.596 360.054 858.731 359.697L862.369 359.938C862.184 360.812 861.806 361.575 861.233 362.227C860.667 362.874 859.935 363.378 859.036 363.741C858.143 364.098 857.112 364.277 855.943 364.277ZM867.066 369.318C866.568 369.318 866.1 369.278 865.663 369.198C865.232 369.124 864.875 369.029 864.592 368.912L865.478 365.976C865.94 366.117 866.355 366.194 866.725 366.207C867.1 366.219 867.423 366.133 867.694 365.948C867.971 365.763 868.196 365.45 868.368 365.006L868.599 364.406L863.512 349.818H867.648L870.584 360.233H870.732L873.695 349.818H877.86L872.347 365.533C872.083 366.296 871.723 366.961 871.267 367.527C870.818 368.099 870.249 368.54 869.559 368.847C868.87 369.161 868.039 369.318 867.066 369.318ZM893.516 349.818V352.773H884.763V349.818H893.516ZM886.767 364V348.793C886.767 347.765 886.967 346.913 887.367 346.236C887.773 345.559 888.327 345.051 889.029 344.712C889.731 344.374 890.528 344.205 891.42 344.205C892.024 344.205 892.575 344.251 893.073 344.343C893.578 344.435 893.953 344.518 894.2 344.592L893.498 347.547C893.344 347.498 893.153 347.451 892.925 347.408C892.704 347.365 892.476 347.344 892.242 347.344C891.664 347.344 891.26 347.479 891.033 347.75C890.805 348.015 890.691 348.387 890.691 348.867V364H886.767ZM899.852 345.091V364H895.919V345.091H899.852ZM909.411 364.277C907.977 364.277 906.736 363.972 905.69 363.363C904.65 362.747 903.846 361.892 903.28 360.796C902.714 359.694 902.431 358.417 902.431 356.964C902.431 355.5 902.714 354.219 903.28 353.124C903.846 352.022 904.65 351.166 905.69 350.557C906.736 349.941 907.977 349.634 909.411 349.634C910.845 349.634 912.082 349.941 913.123 350.557C914.169 351.166 914.975 352.022 915.542 353.124C916.108 354.219 916.391 355.5 916.391 356.964C916.391 358.417 916.108 359.694 915.542 360.796C914.975 361.892 914.169 362.747 913.123 363.363C912.082 363.972 910.845 364.277 909.411 364.277ZM909.429 361.23C910.082 361.23 910.627 361.045 911.064 360.676C911.501 360.301 911.83 359.79 912.051 359.143C912.279 358.497 912.393 357.762 912.393 356.937C912.393 356.112 912.279 355.376 912.051 354.73C911.83 354.084 911.501 353.573 911.064 353.197C910.627 352.822 910.082 352.634 909.429 352.634C908.771 352.634 908.217 352.822 907.767 353.197C907.324 353.573 906.989 354.084 906.761 354.73C906.539 355.376 906.429 356.112 906.429 356.937C906.429 357.762 906.539 358.497 906.761 359.143C906.989 359.79 907.324 360.301 907.767 360.676C908.217 361.045 908.771 361.23 909.429 361.23ZM921.391 364L917.531 349.818H921.511L923.708 359.347H923.837L926.127 349.818H930.033L932.359 359.291H932.479L934.64 349.818H938.61L934.76 364H930.596L928.158 355.081H927.983L925.545 364H921.391Z" fill="#202020"/>
<rect x="409" y="785" width="108" height="56" rx="5" fill="white"/>
<path d="M449.298 803.545H452.989V814.881C452.989 816.153 452.685 817.267 452.077 818.222C451.474 819.176 450.631 819.92 449.545 820.455C448.46 820.983 447.196 821.247 445.753 821.247C444.304 821.247 443.037 820.983 441.952 820.455C440.866 819.92 440.023 819.176 439.42 818.222C438.818 817.267 438.517 816.153 438.517 814.881V803.545H442.207V814.565C442.207 815.23 442.352 815.821 442.642 816.338C442.938 816.855 443.352 817.261 443.886 817.557C444.42 817.852 445.043 818 445.753 818C446.469 818 447.091 817.852 447.619 817.557C448.153 817.261 448.565 816.855 448.855 816.338C449.151 815.821 449.298 815.23 449.298 814.565V803.545ZM465.494 808.565C465.425 807.878 465.133 807.344 464.616 806.963C464.099 806.582 463.397 806.392 462.511 806.392C461.908 806.392 461.4 806.477 460.985 806.648C460.57 806.812 460.252 807.043 460.031 807.338C459.815 807.634 459.707 807.969 459.707 808.344C459.695 808.656 459.761 808.929 459.903 809.162C460.05 809.395 460.252 809.597 460.508 809.767C460.763 809.932 461.059 810.077 461.394 810.202C461.729 810.321 462.087 810.423 462.468 810.509L464.036 810.884C464.798 811.054 465.496 811.281 466.133 811.565C466.769 811.849 467.32 812.199 467.786 812.614C468.252 813.028 468.613 813.517 468.869 814.08C469.13 814.642 469.263 815.287 469.269 816.014C469.263 817.082 468.991 818.009 468.451 818.793C467.917 819.571 467.144 820.176 466.133 820.608C465.127 821.034 463.914 821.247 462.494 821.247C461.085 821.247 459.857 821.031 458.812 820.599C457.772 820.168 456.96 819.528 456.374 818.682C455.795 817.83 455.491 816.776 455.462 815.52H459.033C459.073 816.105 459.241 816.594 459.536 816.986C459.837 817.372 460.238 817.665 460.738 817.864C461.244 818.057 461.815 818.153 462.451 818.153C463.076 818.153 463.619 818.062 464.079 817.881C464.545 817.699 464.906 817.446 465.161 817.122C465.417 816.798 465.545 816.426 465.545 816.006C465.545 815.614 465.428 815.284 465.195 815.017C464.968 814.75 464.633 814.523 464.19 814.335C463.752 814.148 463.215 813.977 462.579 813.824L460.678 813.347C459.207 812.989 458.045 812.429 457.192 811.668C456.34 810.906 455.917 809.881 455.923 808.591C455.917 807.534 456.198 806.611 456.766 805.821C457.34 805.031 458.127 804.415 459.127 803.972C460.127 803.528 461.263 803.307 462.536 803.307C463.832 803.307 464.962 803.528 465.928 803.972C466.9 804.415 467.656 805.031 468.195 805.821C468.735 806.611 469.013 807.526 469.031 808.565H465.494ZM477.939 821H471.751V803.545H477.99C479.746 803.545 481.257 803.895 482.524 804.594C483.791 805.287 484.766 806.284 485.447 807.585C486.135 808.886 486.479 810.443 486.479 812.256C486.479 814.074 486.135 815.636 485.447 816.943C484.766 818.25 483.786 819.253 482.507 819.952C481.234 820.651 479.712 821 477.939 821ZM475.442 817.838H477.786C478.876 817.838 479.794 817.645 480.538 817.259C481.288 816.866 481.851 816.261 482.226 815.443C482.607 814.619 482.797 813.557 482.797 812.256C482.797 810.966 482.607 809.912 482.226 809.094C481.851 808.276 481.291 807.673 480.547 807.287C479.803 806.901 478.885 806.707 477.794 806.707H475.442V817.838Z" fill="black"/>
<rect x="606" y="785" width="108" height="56" rx="5" fill="white"/>
<path d="M646.298 803.545H649.989V814.881C649.989 816.153 649.685 817.267 649.077 818.222C648.474 819.176 647.631 819.92 646.545 820.455C645.46 820.983 644.196 821.247 642.753 821.247C641.304 821.247 640.037 820.983 638.952 820.455C637.866 819.92 637.023 819.176 636.42 818.222C635.818 817.267 635.517 816.153 635.517 814.881V803.545H639.207V814.565C639.207 815.23 639.352 815.821 639.642 816.338C639.938 816.855 640.352 817.261 640.886 817.557C641.42 817.852 642.043 818 642.753 818C643.469 818 644.091 817.852 644.619 817.557C645.153 817.261 645.565 816.855 645.855 816.338C646.151 815.821 646.298 815.23 646.298 814.565V803.545ZM662.494 808.565C662.425 807.878 662.133 807.344 661.616 806.963C661.099 806.582 660.397 806.392 659.511 806.392C658.908 806.392 658.4 806.477 657.985 806.648C657.57 806.812 657.252 807.043 657.031 807.338C656.815 807.634 656.707 807.969 656.707 808.344C656.695 808.656 656.761 808.929 656.903 809.162C657.05 809.395 657.252 809.597 657.508 809.767C657.763 809.932 658.059 810.077 658.394 810.202C658.729 810.321 659.087 810.423 659.468 810.509L661.036 810.884C661.798 811.054 662.496 811.281 663.133 811.565C663.769 811.849 664.32 812.199 664.786 812.614C665.252 813.028 665.613 813.517 665.869 814.08C666.13 814.642 666.263 815.287 666.269 816.014C666.263 817.082 665.991 818.009 665.451 818.793C664.917 819.571 664.144 820.176 663.133 820.608C662.127 821.034 660.914 821.247 659.494 821.247C658.085 821.247 656.857 821.031 655.812 820.599C654.772 820.168 653.96 819.528 653.374 818.682C652.795 817.83 652.491 816.776 652.462 815.52H656.033C656.073 816.105 656.241 816.594 656.536 816.986C656.837 817.372 657.238 817.665 657.738 817.864C658.244 818.057 658.815 818.153 659.451 818.153C660.076 818.153 660.619 818.062 661.079 817.881C661.545 817.699 661.906 817.446 662.161 817.122C662.417 816.798 662.545 816.426 662.545 816.006C662.545 815.614 662.428 815.284 662.195 815.017C661.968 814.75 661.633 814.523 661.19 814.335C660.752 814.148 660.215 813.977 659.579 813.824L657.678 813.347C656.207 812.989 655.045 812.429 654.192 811.668C653.34 810.906 652.917 809.881 652.923 808.591C652.917 807.534 653.198 806.611 653.766 805.821C654.34 805.031 655.127 804.415 656.127 803.972C657.127 803.528 658.263 803.307 659.536 803.307C660.832 803.307 661.962 803.528 662.928 803.972C663.9 804.415 664.656 805.031 665.195 805.821C665.735 806.611 666.013 807.526 666.031 808.565H662.494ZM674.939 821H668.751V803.545H674.99C676.746 803.545 678.257 803.895 679.524 804.594C680.791 805.287 681.766 806.284 682.447 807.585C683.135 808.886 683.479 810.443 683.479 812.256C683.479 814.074 683.135 815.636 682.447 816.943C681.766 818.25 680.786 819.253 679.507 819.952C678.234 820.651 676.712 821 674.939 821ZM672.442 817.838H674.786C675.876 817.838 676.794 817.645 677.538 817.259C678.288 816.866 678.851 816.261 679.226 815.443C679.607 814.619 679.797 813.557 679.797 812.256C679.797 810.966 679.607 809.912 679.226 809.094C678.851 808.276 678.291 807.673 677.547 807.287C676.803 806.901 675.885 806.707 674.794 806.707H672.442V817.838Z" fill="black"/>
<path d="M591.061 814.061C591.646 813.475 591.646 812.525 591.061 811.939L581.515 802.393C580.929 801.808 579.979 801.808 579.393 802.393C578.808 802.979 578.808 803.929 579.393 804.515L587.879 813L579.393 821.485C578.808 822.071 578.808 823.021 579.393 823.607C579.979 824.192 580.929 824.192 581.515 823.607L591.061 814.061ZM555 814.5H590V811.5H555V814.5Z" fill="#8D924A"/>
<rect x="1821" y="348" width="335" height="50" rx="5" fill="#F9F9F9"/>
<path d="M1874.33 365.455H1876.09V375.852C1876.09 376.78 1875.92 377.569 1875.58 378.217C1875.24 378.866 1874.76 379.358 1874.14 379.695C1873.52 380.031 1872.79 380.199 1871.94 380.199C1871.15 380.199 1870.44 380.054 1869.82 379.766C1869.2 379.472 1868.71 379.055 1868.36 378.516C1868 377.976 1867.82 377.334 1867.82 376.591H1869.56C1869.56 377.003 1869.66 377.363 1869.86 377.67C1870.07 377.973 1870.35 378.21 1870.71 378.381C1871.07 378.551 1871.48 378.636 1871.94 378.636C1872.45 378.636 1872.88 378.53 1873.24 378.317C1873.59 378.104 1873.86 377.791 1874.05 377.379C1874.23 376.963 1874.33 376.454 1874.33 375.852V365.455ZM1886.27 375.54V369.091H1887.94V380H1886.27V378.153H1886.15C1885.9 378.707 1885.5 379.179 1884.96 379.567C1884.42 379.95 1883.74 380.142 1882.92 380.142C1882.23 380.142 1881.63 379.993 1881.1 379.695C1880.57 379.392 1880.15 378.937 1879.85 378.331C1879.54 377.72 1879.39 376.951 1879.39 376.023V369.091H1881.07V375.909C1881.07 376.705 1881.29 377.339 1881.74 377.812C1882.19 378.286 1882.76 378.523 1883.46 378.523C1883.87 378.523 1884.3 378.416 1884.73 378.203C1885.16 377.99 1885.53 377.663 1885.82 377.223C1886.12 376.783 1886.27 376.222 1886.27 375.54ZM1892.69 365.455V380H1891.01V365.455H1892.69ZM1896.84 384.091C1896.56 384.091 1896.3 384.067 1896.08 384.02C1895.86 383.977 1895.7 383.935 1895.62 383.892L1896.04 382.415C1896.45 382.519 1896.81 382.557 1897.12 382.528C1897.44 382.5 1897.71 382.36 1897.96 382.109C1898.2 381.863 1898.43 381.463 1898.63 380.909L1898.94 380.057L1894.91 369.091H1896.73L1899.74 377.784H1899.85L1902.86 369.091H1904.68L1900.05 381.591C1899.84 382.154 1899.58 382.621 1899.28 382.99C1898.97 383.364 1898.61 383.641 1898.2 383.821C1897.8 384.001 1897.35 384.091 1896.84 384.091ZM1912.49 380V378.722L1917.29 373.466C1917.85 372.85 1918.32 372.315 1918.68 371.861C1919.05 371.402 1919.32 370.971 1919.49 370.568C1919.67 370.161 1919.76 369.735 1919.76 369.29C1919.76 368.778 1919.64 368.336 1919.39 367.962C1919.15 367.588 1918.82 367.299 1918.4 367.095C1917.98 366.892 1917.5 366.79 1916.98 366.79C1916.42 366.79 1915.93 366.906 1915.52 367.138C1915.1 367.365 1914.78 367.685 1914.56 368.097C1914.33 368.509 1914.22 368.991 1914.22 369.545H1912.55C1912.55 368.693 1912.74 367.945 1913.14 367.301C1913.53 366.657 1914.06 366.155 1914.74 365.795C1915.42 365.436 1916.19 365.256 1917.04 365.256C1917.89 365.256 1918.64 365.436 1919.3 365.795C1919.96 366.155 1920.48 366.641 1920.85 367.251C1921.22 367.862 1921.41 368.542 1921.41 369.29C1921.41 369.825 1921.31 370.348 1921.12 370.859C1920.93 371.366 1920.6 371.932 1920.12 372.557C1919.66 373.177 1919.01 373.935 1918.17 374.83L1914.9 378.324V378.438H1921.67V380H1912.49ZM1929.26 380.199C1928.28 380.199 1927.42 380.026 1926.67 379.68C1925.93 379.33 1925.35 378.849 1924.93 378.239C1924.52 377.623 1924.31 376.922 1924.32 376.136C1924.31 375.521 1924.43 374.953 1924.68 374.432C1924.92 373.906 1925.26 373.468 1925.69 373.118C1926.12 372.763 1926.6 372.538 1927.13 372.443V372.358C1926.43 372.178 1925.88 371.787 1925.47 371.186C1925.05 370.58 1924.85 369.891 1924.86 369.119C1924.85 368.381 1925.04 367.72 1925.42 367.138C1925.79 366.555 1926.32 366.096 1926.98 365.76C1927.65 365.424 1928.41 365.256 1929.26 365.256C1930.1 365.256 1930.85 365.424 1931.52 365.76C1932.18 366.096 1932.7 366.555 1933.08 367.138C1933.46 367.72 1933.66 368.381 1933.66 369.119C1933.66 369.891 1933.45 370.58 1933.03 371.186C1932.62 371.787 1932.07 372.178 1931.39 372.358V372.443C1931.91 372.538 1932.39 372.763 1932.81 373.118C1933.23 373.468 1933.57 373.906 1933.82 374.432C1934.07 374.953 1934.2 375.521 1934.2 376.136C1934.2 376.922 1933.98 377.623 1933.56 378.239C1933.15 378.849 1932.57 379.33 1931.82 379.68C1931.08 380.026 1930.23 380.199 1929.26 380.199ZM1929.26 378.636C1929.92 378.636 1930.48 378.53 1930.96 378.317C1931.44 378.104 1931.81 377.803 1932.07 377.415C1932.33 377.027 1932.46 376.572 1932.47 376.051C1932.46 375.502 1932.32 375.017 1932.04 374.595C1931.76 374.174 1931.38 373.842 1930.9 373.601C1930.42 373.359 1929.87 373.239 1929.26 373.239C1928.64 373.239 1928.08 373.359 1927.6 373.601C1927.11 373.842 1926.73 374.174 1926.45 374.595C1926.18 375.017 1926.04 375.502 1926.05 376.051C1926.04 376.572 1926.17 377.027 1926.42 377.415C1926.69 377.803 1927.06 378.104 1927.54 378.317C1928.02 378.53 1928.6 378.636 1929.26 378.636ZM1929.26 371.733C1929.78 371.733 1930.24 371.629 1930.64 371.42C1931.05 371.212 1931.37 370.921 1931.6 370.547C1931.83 370.173 1931.95 369.735 1931.96 369.233C1931.95 368.741 1931.84 368.312 1931.61 367.947C1931.38 367.578 1931.07 367.294 1930.66 367.095C1930.26 366.892 1929.79 366.79 1929.26 366.79C1928.71 366.79 1928.24 366.892 1927.83 367.095C1927.42 367.294 1927.11 367.578 1926.89 367.947C1926.66 368.312 1926.55 368.741 1926.56 369.233C1926.55 369.735 1926.67 370.173 1926.89 370.547C1927.13 370.921 1927.45 371.212 1927.85 371.42C1928.26 371.629 1928.73 371.733 1929.26 371.733ZM1939 378.011L1938.89 378.778C1938.81 379.318 1938.69 379.896 1938.52 380.511C1938.36 381.127 1938.19 381.707 1938.02 382.251C1937.84 382.796 1937.7 383.229 1937.58 383.551H1936.3C1936.37 383.248 1936.45 382.848 1936.55 382.351C1936.64 381.854 1936.74 381.297 1936.84 380.682C1936.95 380.071 1937.03 379.446 1937.1 378.807L1937.18 378.011H1939ZM1947.7 380V378.722L1952.51 373.466C1953.07 372.85 1953.53 372.315 1953.9 371.861C1954.26 371.402 1954.53 370.971 1954.71 370.568C1954.89 370.161 1954.98 369.735 1954.98 369.29C1954.98 368.778 1954.85 368.336 1954.61 367.962C1954.37 367.588 1954.04 367.299 1953.61 367.095C1953.19 366.892 1952.72 366.79 1952.19 366.79C1951.63 366.79 1951.15 366.906 1950.73 367.138C1950.32 367.365 1950 367.685 1949.77 368.097C1949.55 368.509 1949.44 368.991 1949.44 369.545H1947.76C1947.76 368.693 1947.96 367.945 1948.35 367.301C1948.74 366.657 1949.28 366.155 1949.96 365.795C1950.64 365.436 1951.4 365.256 1952.25 365.256C1953.1 365.256 1953.86 365.436 1954.52 365.795C1955.17 366.155 1955.69 366.641 1956.06 367.251C1956.44 367.862 1956.63 368.542 1956.63 369.29C1956.63 369.825 1956.53 370.348 1956.33 370.859C1956.14 371.366 1955.81 371.932 1955.34 372.557C1954.87 373.177 1954.22 373.935 1953.39 374.83L1950.12 378.324V378.438H1956.88V380H1947.7ZM1964.56 380.199C1963.49 380.199 1962.58 379.908 1961.82 379.325C1961.07 378.738 1960.5 377.888 1960.1 376.776C1959.7 375.658 1959.5 374.309 1959.5 372.727C1959.5 371.155 1959.7 369.813 1960.1 368.7C1960.5 367.583 1961.08 366.731 1961.83 366.143C1962.59 365.552 1963.5 365.256 1964.56 365.256C1965.62 365.256 1966.53 365.552 1967.28 366.143C1968.04 366.731 1968.61 367.583 1969.01 368.7C1969.41 369.813 1969.62 371.155 1969.62 372.727C1969.62 374.309 1969.42 375.658 1969.02 376.776C1968.62 377.888 1968.05 378.738 1967.29 379.325C1966.54 379.908 1965.63 380.199 1964.56 380.199ZM1964.56 378.636C1965.62 378.636 1966.44 378.125 1967.03 377.102C1967.62 376.08 1967.91 374.621 1967.91 372.727C1967.91 371.468 1967.78 370.395 1967.51 369.51C1967.24 368.625 1966.86 367.95 1966.36 367.486C1965.86 367.022 1965.26 366.79 1964.56 366.79C1963.51 366.79 1962.69 367.308 1962.09 368.345C1961.5 369.377 1961.21 370.838 1961.21 372.727C1961.21 373.987 1961.34 375.057 1961.6 375.938C1961.87 376.818 1962.25 377.488 1962.75 377.947C1963.25 378.407 1963.85 378.636 1964.56 378.636ZM1972.31 380V378.722L1977.12 373.466C1977.68 372.85 1978.14 372.315 1978.51 371.861C1978.87 371.402 1979.14 370.971 1979.32 370.568C1979.5 370.161 1979.59 369.735 1979.59 369.29C1979.59 368.778 1979.46 368.336 1979.22 367.962C1978.98 367.588 1978.64 367.299 1978.22 367.095C1977.8 366.892 1977.33 366.79 1976.8 366.79C1976.24 366.79 1975.76 366.906 1975.34 367.138C1974.93 367.365 1974.61 367.685 1974.38 368.097C1974.16 368.509 1974.05 368.991 1974.05 369.545H1972.37C1972.37 368.693 1972.57 367.945 1972.96 367.301C1973.35 366.657 1973.89 366.155 1974.57 365.795C1975.25 365.436 1976.01 365.256 1976.86 365.256C1977.71 365.256 1978.47 365.436 1979.13 365.795C1979.78 366.155 1980.3 366.641 1980.67 367.251C1981.05 367.862 1981.23 368.542 1981.23 369.29C1981.23 369.825 1981.14 370.348 1980.94 370.859C1980.75 371.366 1980.42 371.932 1979.95 372.557C1979.48 373.177 1978.83 373.935 1978 374.83L1974.73 378.324V378.438H1981.49V380H1972.31ZM1989.54 365.455V380H1987.78V367.301H1987.69L1984.14 369.659V367.869L1987.78 365.455H1989.54ZM2005.62 371.946V373.509H1999.26V371.946H2005.62ZM2015.02 380H2013.18L2018.52 365.455H2020.33L2025.68 380H2023.83L2019.48 367.756H2019.37L2015.02 380ZM2015.7 374.318H2023.15V375.881H2015.7V374.318ZM2034.59 375.54V369.091H2036.26V380H2034.59V378.153H2034.48C2034.22 378.707 2033.82 379.179 2033.28 379.567C2032.74 379.95 2032.06 380.142 2031.24 380.142C2030.55 380.142 2029.95 379.993 2029.42 379.695C2028.89 379.392 2028.47 378.937 2028.17 378.331C2027.87 377.72 2027.71 376.951 2027.71 376.023V369.091H2029.39V375.909C2029.39 376.705 2029.61 377.339 2030.06 377.812C2030.51 378.286 2031.08 378.523 2031.78 378.523C2032.19 378.523 2032.62 378.416 2033.05 378.203C2033.48 377.99 2033.85 377.663 2034.14 377.223C2034.44 376.783 2034.59 376.222 2034.59 375.54ZM2043.74 384.318C2042.93 384.318 2042.23 384.214 2041.65 384.006C2041.07 383.802 2040.58 383.532 2040.19 383.196C2039.81 382.865 2039.51 382.509 2039.28 382.131L2040.61 381.193C2040.76 381.392 2040.96 381.619 2041.19 381.875C2041.42 382.135 2041.74 382.36 2042.14 382.55C2042.55 382.744 2043.08 382.841 2043.74 382.841C2044.62 382.841 2045.35 382.628 2045.92 382.202C2046.49 381.776 2046.78 381.108 2046.78 380.199V377.983H2046.64C2046.51 378.182 2046.34 378.428 2046.11 378.722C2045.89 379.01 2045.57 379.268 2045.14 379.496C2044.73 379.718 2044.16 379.83 2043.45 379.83C2042.57 379.83 2041.78 379.621 2041.08 379.205C2040.39 378.788 2039.83 378.182 2039.43 377.386C2039.02 376.591 2038.82 375.625 2038.82 374.489C2038.82 373.371 2039.02 372.398 2039.41 371.57C2039.81 370.736 2040.35 370.092 2041.05 369.638C2041.75 369.179 2042.56 368.949 2043.48 368.949C2044.19 368.949 2044.76 369.067 2045.17 369.304C2045.59 369.536 2045.92 369.801 2046.14 370.099C2046.37 370.393 2046.54 370.634 2046.66 370.824H2046.83V369.091H2048.45V380.312C2048.45 381.25 2048.24 382.012 2047.81 382.599C2047.39 383.191 2046.83 383.625 2046.11 383.899C2045.4 384.179 2044.61 384.318 2043.74 384.318ZM2043.68 378.324C2044.35 378.324 2044.92 378.17 2045.39 377.862C2045.85 377.554 2046.2 377.112 2046.44 376.534C2046.69 375.956 2046.81 375.265 2046.81 374.46C2046.81 373.674 2046.69 372.981 2046.45 372.379C2046.21 371.778 2045.86 371.307 2045.4 370.966C2044.94 370.625 2044.36 370.455 2043.68 370.455C2042.97 370.455 2042.38 370.634 2041.91 370.994C2041.44 371.354 2041.08 371.837 2040.85 372.443C2040.62 373.049 2040.5 373.722 2040.5 374.46C2040.5 375.218 2040.62 375.888 2040.85 376.47C2041.1 377.048 2041.45 377.502 2041.92 377.834C2042.39 378.161 2042.98 378.324 2043.68 378.324ZM2062.23 365.455V380H2060.47V367.301H2060.39L2056.83 369.659V367.869L2060.47 365.455H2062.23ZM2066.07 377.017V375.568L2072.47 365.455H2073.52V367.699H2072.81L2067.98 375.341V375.455H2076.59V377.017H2066.07ZM2072.92 380V376.577V375.902V365.455H2074.6V380H2072.92ZM2081.09 378.011L2080.98 378.778C2080.9 379.318 2080.78 379.896 2080.61 380.511C2080.45 381.127 2080.28 381.707 2080.11 382.251C2079.93 382.796 2079.79 383.229 2079.67 383.551H2078.39C2078.46 383.248 2078.54 382.848 2078.64 382.351C2078.73 381.854 2078.83 381.297 2078.93 380.682C2079.04 380.071 2079.12 379.446 2079.19 378.807L2079.27 378.011H2081.09ZM2089.79 380V378.722L2094.6 373.466C2095.16 372.85 2095.62 372.315 2095.99 371.861C2096.35 371.402 2096.62 370.971 2096.8 370.568C2096.98 370.161 2097.07 369.735 2097.07 369.29C2097.07 368.778 2096.94 368.336 2096.7 367.962C2096.46 367.588 2096.13 367.299 2095.7 367.095C2095.28 366.892 2094.81 366.79 2094.28 366.79C2093.72 366.79 2093.24 366.906 2092.82 367.138C2092.41 367.365 2092.09 367.685 2091.86 368.097C2091.64 368.509 2091.53 368.991 2091.53 369.545H2089.85C2089.85 368.693 2090.05 367.945 2090.44 367.301C2090.83 366.657 2091.37 366.155 2092.05 365.795C2092.73 365.436 2093.49 365.256 2094.34 365.256C2095.19 365.256 2095.95 365.436 2096.61 365.795C2097.26 366.155 2097.78 366.641 2098.15 367.251C2098.53 367.862 2098.72 368.542 2098.72 369.29C2098.72 369.825 2098.62 370.348 2098.42 370.859C2098.23 371.366 2097.9 371.932 2097.43 372.557C2096.96 373.177 2096.31 373.935 2095.48 374.83L2092.21 378.324V378.438H2098.97V380H2089.79ZM2106.65 380.199C2105.58 380.199 2104.67 379.908 2103.91 379.325C2103.16 378.738 2102.59 377.888 2102.19 376.776C2101.79 375.658 2101.59 374.309 2101.59 372.727C2101.59 371.155 2101.79 369.813 2102.19 368.7C2102.59 367.583 2103.17 366.731 2103.92 366.143C2104.68 365.552 2105.59 365.256 2106.65 365.256C2107.71 365.256 2108.62 365.552 2109.37 366.143C2110.13 366.731 2110.7 367.583 2111.1 368.7C2111.5 369.813 2111.71 371.155 2111.71 372.727C2111.71 374.309 2111.51 375.658 2111.11 376.776C2110.71 377.888 2110.14 378.738 2109.38 379.325C2108.63 379.908 2107.72 380.199 2106.65 380.199ZM2106.65 378.636C2107.71 378.636 2108.53 378.125 2109.12 377.102C2109.71 376.08 2110 374.621 2110 372.727C2110 371.468 2109.87 370.395 2109.6 369.51C2109.33 368.625 2108.95 367.95 2108.45 367.486C2107.95 367.022 2107.35 366.79 2106.65 366.79C2105.6 366.79 2104.78 367.308 2104.18 368.345C2103.59 369.377 2103.3 370.838 2103.3 372.727C2103.3 373.987 2103.43 375.057 2103.69 375.938C2103.96 376.818 2104.34 377.488 2104.84 377.947C2105.34 378.407 2105.94 378.636 2106.65 378.636ZM2114.4 380V378.722L2119.21 373.466C2119.77 372.85 2120.23 372.315 2120.6 371.861C2120.96 371.402 2121.23 370.971 2121.41 370.568C2121.59 370.161 2121.68 369.735 2121.68 369.29C2121.68 368.778 2121.55 368.336 2121.31 367.962C2121.07 367.588 2120.73 367.299 2120.31 367.095C2119.89 366.892 2119.42 366.79 2118.89 366.79C2118.33 366.79 2117.85 366.906 2117.43 367.138C2117.02 367.365 2116.7 367.685 2116.47 368.097C2116.25 368.509 2116.14 368.991 2116.14 369.545H2114.46C2114.46 368.693 2114.66 367.945 2115.05 367.301C2115.44 366.657 2115.98 366.155 2116.66 365.795C2117.34 365.436 2118.1 365.256 2118.95 365.256C2119.8 365.256 2120.56 365.436 2121.22 365.795C2121.87 366.155 2122.39 366.641 2122.76 367.251C2123.14 367.862 2123.32 368.542 2123.32 369.29C2123.32 369.825 2123.23 370.348 2123.03 370.859C2122.84 371.366 2122.51 371.932 2122.04 372.557C2121.57 373.177 2120.92 373.935 2120.09 374.83L2116.82 378.324V378.438H2123.58V380H2114.4ZM2131.63 365.455V380H2129.87V367.301H2129.78L2126.23 369.659V367.869L2129.87 365.455H2131.63Z" fill="#202020"/>
<path d="M320.127 958.135C174.222 1017.31 175.13 990.948 154.031 977.933" stroke="#808080" stroke-width="2"/>
<path d="M153.88 895.333C214.669 1007.06 197.301 1008.27 191.991 1026" stroke="#808080" stroke-width="2"/>
<path d="M313.514 946.672C178.284 1022.24 178.194 1007.94 157.865 1007.39" stroke="#808080" stroke-width="2"/>
<path fill-rule="evenodd" clip-rule="evenodd" d="M1835.28 365.75C1835.28 364.231 1836.5 363 1838.01 363H1840.01C1841.52 363 1842.75 364.231 1842.75 365.75V367.75C1842.75 368.164 1842.41 368.5 1842 368.5H1836.02C1835.61 368.5 1835.28 368.164 1835.28 367.75V365.75ZM1838.01 364.5C1837.33 364.5 1836.77 365.06 1836.77 365.75V367H1841.25V365.75C1841.25 365.06 1840.69 364.5 1840.01 364.5H1838.01Z" fill="#202020"/>
<path fill-rule="evenodd" clip-rule="evenodd" d="M1833.52 365.679C1833.65 365.618 1833.79 365.715 1833.79 365.855L1833.78 367.75C1833.78 368.993 1834.79 370 1836.02 370H1842C1843.24 370 1844.24 368.993 1844.24 367.75V365.854C1844.24 365.714 1844.38 365.618 1844.51 365.679C1845.69 366.247 1846.48 367.457 1846.48 368.835V379.325C1846.48 381.036 1845.21 382.479 1843.52 382.69C1840.53 383.064 1837.5 383.064 1834.5 382.69C1832.81 382.479 1831.54 381.036 1831.54 379.325V368.835C1831.54 367.457 1832.34 366.247 1833.52 365.679ZM1842 372.75C1842.41 372.75 1842.75 373.086 1842.75 373.5C1842.75 373.914 1842.41 374.25 1842 374.25H1836.02C1835.61 374.25 1835.28 373.914 1835.28 373.5C1835.28 373.086 1835.61 372.75 1836.02 372.75H1842ZM1841 375.75C1841.42 375.75 1841.75 376.086 1841.75 376.5C1841.75 376.914 1841.42 377.25 1841 377.25H1836.02C1835.61 377.25 1835.28 376.914 1835.28 376.5C1835.28 376.086 1835.61 375.75 1836.02 375.75H1841Z" fill="#202020"/>
<line x1="1530.5" y1="598" x2="1530.5" y2="615" stroke="#3A3A3A"/>
<line x1="1530.5" y1="567" x2="1530.5" y2="584" stroke="#3A3A3A"/>
<line x1="1530.5" y1="536" x2="1530.5" y2="553" stroke="#3A3A3A"/>
<line x1="1530.5" y1="507" x2="1530.5" y2="524" stroke="#3A3A3A"/>
<circle cx="1530.5" cy="497.5" r="5.5" fill="white" stroke="black" stroke-width="2"/>
</g>
<defs>
<filter id="filter0_d_37_24" x="1093" y="121" width="520" height="67" filterUnits="userSpaceOnUse" color-interpolation-filters="sRGB">
<feFlood flood-opacity="0" result="BackgroundImageFix"/>
<feColorMatrix in="SourceAlpha" type="matrix" values="0 0 0 0 0 0 0 0 0 0 0 0 0 0 0 0 0 0 127 0" result="hardAlpha"/>
<feOffset dy="4"/>
<feGaussianBlur stdDeviation="2"/>
<feComposite in2="hardAlpha" operator="out"/>
<feColorMatrix type="matrix" values="0 0 0 0 0 0 0 0 0 0 0 0 0 0 0 0 0 0 0.06 0"/>
<feBlend mode="normal" in2="BackgroundImageFix" result="effect1_dropShadow_37_24"/>
<feBlend mode="normal" in="SourceGraphic" in2="effect1_dropShadow_37_24" result="shape"/>
</filter>
<filter id="filter1_d_37_24" x="726" y="304" width="1488" height="431" filterUnits="userSpaceOnUse" color-interpolation-filters="sRGB">
<feFlood flood-opacity="0" result="BackgroundImageFix"/>
<feColorMatrix in="SourceAlpha" type="matrix" values="0 0 0 0 0 0 0 0 0 0 0 0 0 0 0 0 0 0 127 0" result="hardAlpha"/>
<feOffset dy="4"/>
<feGaussianBlur stdDeviation="2"/>
<feComposite in2="hardAlpha" operator="out"/>
<feColorMatrix type="matrix" values="0 0 0 0 0 0 0 0 0 0 0 0 0 0 0 0 0 0 0.19 0"/>
<feBlend mode="normal" in2="BackgroundImageFix" result="effect1_dropShadow_37_24"/>
<feBlend mode="normal" in="SourceGraphic" in2="effect1_dropShadow_37_24" result="shape"/>
</filter>
<clipPath id="clip0_37_24">
<rect width="2210" height="1072" fill="white"/>
</clipPath>
</defs>
</svg>
